<?xml version="1.0" standalone="no"?>
<!DOCTYPE svg PUBLIC "-//W3C//DTD SVG 20010904//EN"
 "http://www.w3.org/TR/2001/REC-SVG-20010904/DTD/svg10.dtd">
<svg version="1.0" xmlns="http://www.w3.org/2000/svg"
 width="1024.000000pt" height="1024.000000pt" viewBox="0 0 1024.000000 1024.000000"
 preserveAspectRatio="xMidYMid meet">

<g transform="translate(0.000000,1024.000000) scale(0.100000,-0.100000)"
fill="#000000" stroke="none">
<path d="M2145 10233 c-372 -47 -579 -105 -850 -238 -603 -295 -1030 -816
-1211 -1473 -19 -69 -44 -187 -56 -261 l-23 -136 -2 -2429 -3 -2429 91 84
c247 227 365 309 444 309 29 -1 29 -1 10 -16 -11 -8 -27 -20 -35 -25 -11 -8
-12 -11 -3 -15 21 -9 -2 -39 -47 -63 -45 -23 -50 -18 -17 17 20 22 20 24 3 21
-10 -2 -36 -29 -58 -59 -34 -49 -42 -70 -47 -128 0 -7 -5 -11 -10 -8 -10 7
-47 -81 -86 -209 -15 -49 -32 -94 -36 -99 -5 -6 -9 15 -9 47 0 35 -4 57 -11
57 -6 0 -52 -40 -101 -90 l-91 -89 6 -453 c7 -554 21 -685 107 -947 178 -549
569 -1023 1085 -1313 164 -93 398 -184 580 -226 216 -51 678 -84 690 -49 2 6
11 101 20 210 19 242 36 328 124 622 38 127 92 325 120 442 46 189 53 232 65
410 10 144 20 213 34 253 46 129 115 290 124 290 5 0 7 4 4 9 -4 5 -2 11 3 13
9 3 60 120 107 248 14 36 47 112 74 170 27 58 61 134 75 170 60 147 63 151
331 340 35 25 171 126 301 225 131 100 277 205 325 234 48 29 85 57 82 62 -5
8 10 13 29 10 5 -1 6 3 3 8 -4 5 2 9 13 8 10 0 75 35 143 79 134 88 247 157
348 214 36 20 87 51 112 68 26 18 51 32 56 32 14 0 43 36 35 43 -6 6 11 11 30
8 4 -1 29 14 55 31 27 18 68 44 92 58 24 14 59 41 79 60 19 19 29 27 22 18
-19 -26 -2 -22 42 8 41 27 45 46 5 21 -14 -9 -32 -12 -48 -7 l-25 7 30 9 c30
8 30 8 -15 16 -34 6 -67 2 -143 -17 -54 -14 -112 -32 -129 -41 -16 -8 -33 -13
-36 -9 -3 3 4 8 17 12 12 3 20 11 17 18 -3 8 7 15 25 19 39 7 63 32 54 54 -7
20 -7 22 1 21 4 0 11 5 15 13 7 10 9 9 9 -4 0 -10 3 -18 8 -18 4 0 7 15 7 34
0 19 -4 32 -9 29 -5 -4 -15 2 -22 12 -18 25 -29 13 -14 -15 10 -19 9 -24 -9
-37 -12 -8 -21 -21 -21 -29 0 -19 -16 -18 -24 2 -9 23 -8 27 9 20 8 -3 15 -1
15 4 0 6 -4 10 -10 10 -5 0 -10 7 -10 15 0 17 -11 20 -26 6 -5 -6 -14 -4 -22
5 -10 11 -7 16 18 29 17 9 30 11 30 5 0 -16 17 -12 24 7 4 9 1 21 -5 27 -9 8
-10 8 -5 -1 5 -9 0 -13 -13 -13 -11 0 -23 -5 -26 -11 -4 -6 -14 -8 -23 -4 -8
3 -19 0 -24 -7 -6 -11 -8 -11 -8 0 0 7 7 15 16 19 13 5 13 7 2 14 -9 6 -5 9
14 9 30 0 47 18 29 30 -7 4 -35 2 -62 -3 -36 -7 -61 -6 -89 2 -32 9 -46 9 -76
-4 -43 -18 -63 -20 -48 -5 6 6 53 28 105 49 52 21 93 42 92 47 -1 5 -16 13
-35 18 -18 6 -36 15 -40 20 -12 17 -9 72 8 147 15 67 15 70 -6 104 -11 18 -30
37 -40 40 -38 12 -49 32 -39 67 14 52 11 61 -13 35 -13 -13 -53 -52 -89 -85
-66 -62 -66 -62 -66 -32 0 19 15 48 40 82 124 163 154 216 197 350 44 133 60
211 67 308 6 86 6 86 -22 104 l-29 19 -40 -49 c-54 -64 -116 -127 -116 -116 0
4 5 13 12 20 6 6 8 15 4 19 -8 9 -57 -48 -52 -62 5 -16 -13 -45 -29 -45 -19 0
-19 11 0 36 8 10 15 31 15 46 0 15 5 30 10 33 6 3 10 15 10 26 0 10 9 28 21
40 13 13 22 36 23 63 3 51 23 145 34 160 5 6 5 52 0 101 -5 50 -11 110 -13
135 -4 54 -54 187 -165 445 -45 105 -106 248 -135 318 -29 70 -54 129 -56 131
-2 3 -2 -50 -1 -117 4 -120 -9 -324 -16 -259 -4 43 -20 41 -20 -2 0 -49 -12
-116 -21 -116 -11 0 -20 100 -31 339 -15 330 -86 781 -153 966 -12 33 -20 62
-18 64 1 2 -1 7 -6 10 -5 3 -17 21 -26 40 -13 27 -14 31 -2 21 8 -7 15 -19 15
-26 0 -8 4 -14 9 -14 18 0 -18 111 -79 247 -55 120 -78 161 -116 208 -19 22
-74 90 -123 150 -49 61 -152 174 -228 253 -77 78 -138 142 -136 142 3 0 14 -5
26 -11 21 -10 21 -9 -2 10 -62 55 41 -7 147 -87 17 -13 32 -21 32 -17 0 18
-98 184 -130 219 -19 22 -64 53 -100 70 -56 26 -79 31 -175 36 -60 3 -110 9
-110 14 0 18 89 37 145 31 30 -3 71 -7 91 -9 54 -5 152 -53 191 -94 39 -41 83
-112 152 -249 30 -58 76 -125 127 -185 283 -329 346 -464 565 -1228 58 -200
121 -413 141 -474 33 -102 180 -471 260 -651 20 -44 73 -171 117 -281 l82
-201 37 16 c25 11 40 24 44 41 3 14 10 30 14 36 5 6 10 19 12 30 2 10 7 26 10
34 8 18 15 63 17 105 1 26 3 27 10 10 l9 -20 2 20 c7 73 16 120 38 205 11 41
21 78 21 83 0 4 5 7 11 7 6 0 8 -9 4 -22 -6 -22 -5 -22 7 -3 6 11 11 47 10 80
0 33 5 89 13 125 8 36 17 87 19 114 5 53 25 88 27 46 3 -57 30 91 32 172 2 66
6 91 20 105 21 23 22 53 3 53 -15 0 -12 27 10 68 8 16 13 19 17 10 5 -14 22
44 31 102 2 19 18 98 35 175 17 77 53 248 80 380 28 132 62 294 76 360 14 66
39 183 55 260 50 241 109 508 115 513 3 3 5 -3 5 -12 0 -13 6 -17 20 -13 12 3
18 1 14 -5 -4 -6 -8 -29 -10 -52 -3 -36 -49 -292 -117 -656 -14 -74 -20 -128
-14 -131 12 -8 -1 -258 -18 -336 -3 -12 -7 -64 -10 -115 -3 -51 -10 -119 -17
-150 -6 -31 -8 -64 -5 -72 4 -9 2 -18 -3 -21 -27 -17 -16 -168 12 -162 23 4
36 -69 42 -238 8 -179 11 -205 27 -205 6 0 7 4 4 10 -3 5 0 7 7 5 9 -4 23 10
37 36 19 34 21 43 10 50 -11 7 -9 12 9 24 12 9 22 22 22 28 0 8 -3 7 -9 -2 -7
-11 -9 -11 -13 0 -6 17 30 52 47 45 8 -3 16 0 18 7 3 7 3 -8 2 -33 -2 -25 -8
-58 -15 -75 -20 -50 -22 -66 -25 -185 l-3 -115 8 97 c16 200 60 299 150 338
24 10 24 10 -7 7 -32 -3 -43 6 -23 18 6 3 10 17 10 31 0 14 6 40 14 58 12 29
18 33 40 29 17 -4 26 -12 26 -24 0 -10 5 -21 10 -24 6 -3 10 -17 10 -30 0 -13
5 -27 10 -30 17 -11 2 -23 -23 -19 -12 2 2 -5 32 -16 39 -14 76 -41 140 -102
82 -78 120 -121 91 -103 -14 9 -7 -22 15 -65 13 -26 36 -132 30 -138 -2 -2
-18 19 -36 47 -28 43 -37 50 -61 47 -24 -3 -32 4 -67 59 -21 35 -62 81 -91
104 -63 50 -101 54 -141 15 l-28 -27 5 24 c5 22 4 22 -11 -4 -9 -15 -23 -62
-31 -103 -15 -82 -19 -208 -5 -186 5 8 11 -21 15 -74 7 -97 23 -169 40 -183 8
-7 11 19 12 97 2 115 23 192 79 287 25 44 57 66 35 25 -6 -11 -12 -42 -14 -70
-3 -41 -1 -50 13 -50 9 0 24 -9 34 -20 17 -20 47 -27 47 -11 0 11 30 19 48 14
6 -3 12 -10 12 -16 0 -18 -67 -58 -84 -51 -27 10 -64 -39 -72 -95 -4 -28 -10
-51 -15 -51 -11 0 -9 -84 2 -101 5 -8 9 -9 9 -4 0 6 5 3 11 -5 8 -12 9 -11 5
5 -3 11 -7 32 -10 47 -3 15 -7 32 -11 38 -3 5 -2 10 2 10 10 0 43 -100 43
-128 0 -24 79 -99 113 -107 15 -4 36 -18 47 -32 27 -34 106 -93 124 -93 9 0
16 -4 16 -10 0 -5 -5 -10 -12 -10 -7 0 -22 -12 -34 -27 -16 -20 -25 -24 -40
-18 -10 4 -25 7 -31 6 -7 -1 -13 3 -13 9 0 5 5 10 11 10 7 0 -8 19 -33 43 -24
23 -54 56 -66 72 -20 29 -21 30 -36 10 -14 -19 -18 -17 -90 60 -41 44 -75 75
-76 68 0 -6 5 -15 10 -18 6 -3 10 -11 10 -16 0 -6 -5 -7 -12 -3 -7 4 1 -15 16
-42 38 -65 56 -82 22 -20 -34 62 -27 72 8 11 33 -55 90 -114 134 -137 18 -9
42 -33 53 -52 15 -26 30 -37 55 -42 19 -3 37 -10 40 -15 3 -5 13 -5 23 0 10 6
29 11 43 13 14 2 33 10 41 17 14 11 17 9 23 -13 8 -34 -3 -91 -20 -105 -8 -7
-36 -10 -69 -7 -57 5 -104 -3 -109 -17 -3 -9 86 -67 103 -67 5 0 7 -5 3 -11
-3 -6 -17 -9 -30 -6 -24 4 -34 -8 -12 -15 7 -3 11 -31 10 -84 -1 -43 3 -86 8
-94 7 -10 10 12 10 72 0 48 3 89 8 91 4 3 17 1 28 -3 18 -7 23 -22 34 -107 6
-54 18 -126 26 -161 8 -35 12 -67 9 -71 -2 -5 0 -69 6 -142 14 -183 15 -242 4
-259 -7 -11 -14 -3 -31 33 l-21 47 -7 -37 c-3 -21 -6 -73 -6 -115 0 -73 -11
-106 -24 -73 -11 29 -27 281 -24 377 1 53 0 100 -4 104 -4 4 -15 -7 -25 -25
-10 -17 -22 -31 -28 -31 -22 -1 -198 -98 -226 -125 l-31 -29 7 -87 c5 -73 4
-87 -9 -92 -20 -8 -20 -27 -2 -95 7 -29 12 -52 10 -52 -10 0 -54 103 -54 125
0 96 -121 -184 -160 -373 -5 -23 -13 -50 -18 -60 -5 -9 -12 -34 -16 -54 -5
-28 -11 -36 -26 -35 -16 1 -20 9 -20 37 0 19 -9 48 -19 63 l-18 29 -24 -39
c-23 -36 -24 -47 -23 -188 0 -92 7 -192 18 -258 10 -60 15 -111 13 -114 -16
-15 -90 305 -103 448 l-7 66 -52 -29 c-52 -28 -87 -58 -68 -58 6 0 27 11 48
25 20 15 38 25 40 23 6 -7 -16 -162 -24 -172 -14 -17 -43 -125 -36 -135 7 -13
-5 -61 -15 -61 -4 0 -11 12 -15 28 l-8 27 -7 -25 c-12 -37 -12 54 -1 103 10
43 6 45 -40 14 -19 -12 -47 -28 -64 -35 -83 -37 -355 -222 -481 -327 -173
-144 -242 -194 -292 -209 -26 -8 -44 -15 -41 -15 30 -4 176 -44 183 -51 5 -5
-2 -12 -16 -15 -25 -6 -51 -7 -164 -6 -59 1 -143 -20 -296 -74 -63 -22 -105
-42 -101 -48 3 -6 1 -7 -5 -3 -15 9 -82 -33 -82 -52 0 -13 -2 -14 -8 -4 -9 14
-112 -58 -275 -192 -86 -71 -182 -139 -209 -148 -5 -2 -6 -11 -3 -20 4 -10 35
-25 76 -38 38 -11 69 -23 69 -26 0 -2 -48 -4 -107 -2 -100 2 -111 0 -150 -23
-47 -28 -70 -55 -102 -117 -12 -24 -41 -64 -63 -88 -22 -24 -39 -44 -36 -44 2
0 38 31 79 70 85 80 122 97 174 80 19 -6 35 -15 35 -19 0 -4 -18 -13 -41 -20
-60 -18 -186 -141 -199 -195 -6 -22 -31 -97 -56 -166 -56 -153 -149 -433 -159
-478 -3 -17 -10 -32 -14 -32 -4 0 -8 -88 -10 -196 -1 -123 2 -193 8 -190 6 4
6 -5 0 -26 -16 -56 -10 -167 16 -324 27 -160 29 -180 14 -149 -6 14 -8 0 -8
-50 2 -95 0 -107 -10 -101 -5 3 -12 18 -16 33 -3 16 -17 51 -29 78 -13 28 -36
87 -51 133 -14 45 -30 80 -35 77 -4 -3 -6 -15 -2 -28 5 -20 4 -21 -12 -8 -16
13 -17 13 -15 0 2 -7 -5 -41 -15 -74 -10 -33 -38 -134 -61 -225 -60 -227 -91
-335 -104 -357 -6 -10 -11 -13 -11 -8 0 6 -5 3 -10 -5 -8 -13 -10 -12 -11 5
-1 11 -1 24 0 29 1 5 -4 4 -12 -3 -8 -6 -22 -53 -31 -104 -9 -50 -23 -126 -31
-167 -8 -41 -17 -93 -20 -115 -7 -52 -15 -103 -21 -138 l-6 -27 2779 0 c2704
0 2782 1 2931 20 455 58 805 209 1173 504 172 138 366 353 491 546 42 66 136
233 149 267 l9 24 -78 -6 c-52 -3 -70 -2 -57 4 11 5 16 10 10 10 -24 3 23 20
70 26 27 4 57 11 66 16 37 19 135 363 164 579 12 86 19 221 22 437 6 336 8
319 -50 456 -36 85 -47 90 -31 12 19 -90 52 -280 58 -333 3 -27 1 -40 -6 -36
-7 4 -8 -8 -4 -35 3 -22 4 -41 2 -41 -5 0 -32 84 -55 175 -48 188 -98 300
-186 415 -72 92 -133 150 -161 150 -13 0 -24 -3 -24 -7 0 -3 25 -53 55 -111
31 -57 54 -106 52 -109 -3 -2 -35 36 -73 84 -89 116 -112 142 -276 313 -100
106 -153 154 -193 175 -51 26 -108 78 -160 145 -11 14 -26 30 -33 34 -17 11
-2 -19 72 -139 30 -49 73 -122 95 -162 22 -40 64 -109 94 -155 76 -115 207
-338 252 -428 21 -41 49 -90 63 -108 31 -41 21 -52 -26 -27 -27 15 -47 39 -77
95 -59 110 -63 115 -149 183 -43 34 -89 71 -102 82 -13 11 -75 124 -137 250
-163 332 -229 453 -330 605 -89 134 -232 330 -249 341 -5 3 3 32 17 63 36 78
26 93 -17 26 -58 -91 -164 -170 -227 -170 -35 0 -30 14 11 32 90 40 117 72
153 182 13 41 14 58 4 105 -7 31 -20 72 -30 93 l-19 36 40 -16 c22 -10 40 -23
40 -29 0 -18 25 -16 40 2 30 37 130 238 160 322 11 32 20 71 20 88 -1 27 -2
28 -14 13 -22 -29 -25 -21 -11 32 10 36 11 68 4 117 -5 38 -12 108 -15 157 -6
102 3 106 46 19 13 -26 30 -54 37 -61 11 -11 13 -10 13 8 0 12 -4 18 -10 15
-5 -3 -10 3 -10 14 0 12 4 21 8 21 4 0 14 27 20 60 13 63 54 151 80 172 13 11
15 10 9 -11 -13 -52 23 7 118 191 138 267 156 322 158 473 1 66 -2 135 -7 153
l-8 34 -24 -23 c-28 -26 -45 -18 -20 10 20 22 34 101 18 101 -6 0 -12 -3 -14
-7 -1 -5 -20 -22 -40 -40 -20 -17 -35 -33 -32 -36 2 -2 -4 -10 -13 -18 -16
-13 -17 -12 -4 4 15 19 9 22 -19 7 -18 -10 -18 -9 -4 27 9 21 24 52 35 69 10
17 16 34 12 38 -4 3 5 19 19 34 14 15 31 37 38 50 7 14 17 21 26 18 8 -3 14
-1 14 5 0 6 6 9 14 6 14 -6 56 26 56 43 0 4 -5 10 -12 12 -11 4 -12 52 -4 118
3 28 21 67 43 92 8 9 12 21 8 27 -13 21 30 -2 52 -28 l23 -26 0 29 c0 21 4 27
15 22 19 -7 19 7 -1 73 -11 40 -30 68 -75 114 -83 85 -89 99 -93 224 -2 62 -1
97 4 83 4 -14 8 -42 9 -62 1 -20 6 -40 11 -43 17 -10 14 269 -4 453 -3 28 0
45 8 48 19 7 -8 168 -49 281 -40 112 -40 113 -20 113 25 0 74 -86 110 -192 40
-120 72 -289 81 -427 4 -53 10 -102 14 -110 12 -23 23 82 22 224 0 119 1 127
13 95 8 -19 14 -48 15 -65 l2 -30 8 35 c5 19 10 115 12 212 2 98 6 178 10 178
16 0 38 -33 44 -67 9 -46 -3 -223 -17 -260 -6 -15 -17 -76 -25 -135 -7 -60
-18 -125 -23 -145 -6 -21 -14 -56 -20 -77 -5 -21 -14 -42 -19 -45 -5 -3 -12
-24 -16 -46 -5 -31 -4 -36 4 -25 9 11 10 -3 6 -58 -5 -53 -1 -98 14 -169 11
-53 20 -112 20 -130 0 -19 -20 -85 -44 -146 -24 -62 -48 -136 -55 -165 -14
-66 -15 -444 -1 -422 7 11 10 1 10 -34 0 -39 5 -52 25 -68 18 -14 23 -26 20
-41 -6 -22 18 -94 29 -89 3 1 7 2 9 1 1 0 20 -2 42 -4 22 -1 78 -8 125 -14
148 -21 378 -38 500 -37 l75 1 3 1015 c2 689 -1 1055 -8 1139 -65 720 -444
1359 -1037 1748 -278 183 -579 296 -943 355 l-135 22 -2970 2 c-1633 0 -2983
-1 -3000 -3z m6975 -862 c-18 -58 -29 -76 -65 -105 -24 -20 -46 -36 -49 -36
-15 0 -3 29 20 51 41 38 81 100 95 149 8 25 15 38 17 28 2 -9 -6 -48 -18 -87z
m-6949 63 c-40 -13 -91 -33 -112 -43 -22 -11 -39 -15 -39 -11 0 7 62 34 170
73 8 3 24 6 35 6 11 0 -13 -11 -54 -25z m4839 -5 c0 -16 -223 -234 -228 -221
-6 19 26 69 75 116 26 25 51 46 55 46 4 0 10 0 13 1 2 0 20 16 38 35 37 36 47
41 47 23z m-254 -24 c-11 -8 -17 -15 -13 -15 4 0 -27 -39 -69 -87 -99 -113
-124 -166 -131 -282 -3 -50 -10 -88 -14 -85 -5 3 -9 15 -9 28 0 12 -4 26 -9
32 -5 5 -11 27 -13 49 -4 40 -4 40 -18 -22 -11 -51 -16 -60 -28 -51 -9 8 -11
23 -7 52 20 121 131 268 279 368 43 29 65 38 32 13z m-4761 -38 c-23 -16 -63
-32 -52 -21 10 10 51 32 62 33 5 1 1 -5 -10 -12z m-79 -48 c-17 -25 -70 -59
-92 -59 -8 0 -12 -4 -9 -10 3 -5 -3 -10 -15 -10 -14 0 -19 -4 -14 -12 5 -8 2
-9 -9 -5 -9 3 -16 3 -14 -1 3 -12 -85 -97 -138 -132 -27 -19 -52 -38 -53 -42
-6 -14 -126 -103 -135 -100 -5 1 -6 -2 -3 -7 3 -5 -1 -14 -9 -21 -13 -11 -14
-10 -9 6 6 16 2 15 -21 -6 -28 -25 -125 -169 -182 -270 -64 -114 -137 -318
-183 -515 -41 -178 -79 -295 -94 -295 -5 0 -3 14 35 170 101 426 185 650 321
851 35 54 59 95 51 92 -18 -7 -106 -128 -158 -219 -42 -74 -61 -110 -114 -224
-12 -25 -44 -81 -72 -125 -46 -73 -188 -346 -210 -401 -7 -20 1 -16 47 21 30
25 59 45 65 45 6 0 -6 -22 -25 -49 -50 -68 -147 -241 -136 -241 6 0 10 5 10
10 0 6 8 10 18 10 9 0 13 -4 7 -8 -5 -4 -11 -20 -12 -37 -2 -16 -12 -43 -24
-59 -12 -16 -16 -25 -10 -21 7 4 0 -12 -15 -36 -15 -24 -31 -45 -35 -47 -5 -2
-9 -10 -9 -18 0 -8 -18 -45 -40 -81 -43 -71 -53 -107 -17 -59 12 16 55 73 94
127 69 91 210 235 221 224 3 -2 13 5 23 17 11 11 19 18 19 13 0 -4 -31 -42
-68 -84 -79 -87 -187 -227 -222 -286 l-23 -40 31 29 c18 17 32 26 32 21 0 -5
30 20 68 56 76 74 123 111 83 66 -27 -30 -19 -36 13 -10 12 10 -8 -14 -44 -52
-152 -162 -293 -371 -325 -482 -9 -29 -20 -53 -26 -53 -6 0 -8 -7 -5 -16 3 -8
2 -13 -3 -10 -17 11 -40 -120 -42 -235 -1 -90 6 -149 31 -284 18 -96 34 -216
36 -275 9 -234 13 -289 28 -375 9 -49 20 -106 26 -125 14 -48 13 -363 -2 -541
-19 -240 4 -373 98 -561 61 -122 112 -184 349 -418 125 -124 253 -257 286
-297 57 -70 71 -92 47 -77 -7 4 -8 3 -4 -5 4 -6 11 -9 16 -6 13 8 35 -24 23
-36 -7 -7 -21 3 -44 32 -19 24 -33 46 -33 49 1 3 -14 23 -34 45 -19 22 -29 31
-21 20 7 -11 -16 7 -51 40 -96 91 -196 185 -289 272 -97 91 -172 181 -263 314
-74 108 -102 174 -129 304 -17 83 -18 122 -13 495 5 282 3 443 -5 530 -7 69
-16 178 -21 243 -5 65 -25 213 -44 330 -61 374 -59 450 20 757 25 96 53 202
61 235 8 33 32 119 53 190 21 72 48 170 60 218 43 182 107 344 184 471 23 39
60 100 81 136 162 274 336 488 510 625 121 94 494 331 528 334 5 1 1 -9 -7
-20z m4469 -201 c0 -51 -3 -95 -6 -98 -6 -5 10 -77 26 -114 7 -16 5 -17 -16
-11 -34 10 -46 30 -54 86 -8 59 1 119 27 182 11 26 21 47 22 47 0 0 1 -42 1
-92z m3245 -55 c0 -60 -7 -136 -15 -171 -15 -61 -78 -212 -89 -212 -3 0 -3 7
1 16 3 8 -41 -31 -98 -88 -91 -91 -183 -157 -199 -142 -2 3 25 33 60 67 l65
62 -50 -55 -50 -55 58 55 c31 30 55 60 53 67 -3 6 2 17 10 23 8 7 14 9 14 4 1
-5 9 2 20 15 11 12 18 27 15 31 -3 5 0 12 6 16 8 5 9 3 4 -6 -6 -9 -4 -11 4
-6 7 5 10 15 7 23 -3 8 -1 11 4 8 10 -6 81 135 93 183 7 29 -9 19 -29 -20 -8
-16 -18 -28 -20 -25 -3 3 4 20 15 38 11 18 18 36 15 41 -3 5 -1 7 6 6 14 -4
69 132 77 189 11 79 23 44 23 -64z m-1624 -168 l-15 -40 0 47 c-1 26 5 69 12
95 l12 47 3 -54 c2 -31 -4 -73 -12 -95z m-182 82 c-3 -8 -11 -14 -19 -14 -11
0 -12 4 -4 14 6 7 15 13 20 13 5 0 6 -6 3 -13z m72 -34 c-10 -26 -18 -8 -9 23
5 21 8 24 11 11 2 -10 1 -25 -2 -34z m164 8 c0 -19 -17 -38 -25 -29 -7 7 7 48
16 48 5 0 9 -9 9 -19z m274 -21 c-25 -25 -42 -36 -48 -30 -6 6 -16 4 -28 -7
-10 -9 -18 -13 -18 -10 0 9 53 57 63 57 4 0 5 -6 2 -12 -4 -7 0 -6 7 2 12 14
47 38 57 39 2 1 -14 -17 -35 -39z m111 -9 c-4 -12 -25 -33 -48 -48 -23 -14
-50 -35 -60 -47 l-19 -21 5 23 c5 19 3 21 -9 11 -21 -17 -17 -1 8 34 42 59 59
75 78 70 10 -3 21 1 25 7 12 19 28 -5 20 -29z m195 -12 l-25 -21 27 5 c15 2
27 1 26 -2 -2 -20 5 -30 27 -35 14 -4 25 -10 25 -15 0 -12 -59 -23 -74 -14
-19 12 -60 2 -83 -20 -13 -11 -23 -16 -23 -10 0 5 11 20 25 33 39 37 29 45
-12 11 -41 -34 -53 -38 -53 -17 0 20 50 67 95 87 55 24 76 24 45 -2z m-7240
-9 c0 -5 -5 -10 -11 -10 -5 0 -7 5 -4 10 3 6 8 10 11 10 2 0 4 -4 4 -10z
m8071 -31 c-13 -10 -18 -19 -13 -19 13 0 -29 -69 -42 -70 -5 0 -14 -8 -21 -17
-7 -9 -18 -17 -26 -19 -8 -1 -22 -5 -33 -10 -16 -6 -17 -4 -7 13 14 27 154
154 161 147 3 -3 -6 -14 -19 -25z m-3226 2 c-17 -7 -15 -9 15 -15 65 -14 110
-29 110 -38 0 -4 -7 -8 -15 -8 -8 0 -15 -4 -15 -8 0 -5 -27 -23 -60 -42 -33
-18 -72 -47 -87 -63 l-28 -29 66 36 c85 46 99 46 29 0 -112 -75 -220 -184
-220 -223 0 -9 44 16 123 71 42 29 33 13 -37 -61 -54 -58 -106 -131 -93 -131
3 0 21 21 42 48 21 26 35 40 32 32 -3 -8 -17 -42 -31 -75 -14 -34 -27 -81 -30
-105 -5 -36 -4 -40 4 -20 8 20 9 18 4 -15 -3 -22 -10 -44 -15 -49 -13 -14 -12
-139 1 -131 6 3 10 24 10 46 0 26 7 46 20 59 l21 21 -7 -28 c-3 -16 -15 -61
-25 -100 -25 -96 -23 -124 3 -48 26 73 35 59 14 -22 -16 -63 -33 -252 -22
-242 4 4 23 31 41 60 39 62 40 61 20 -5 -16 -51 -13 -77 4 -35 25 65 60 137
70 143 18 12 13 -9 -29 -105 -22 -51 -40 -103 -40 -115 0 -13 -5 -35 -10 -50
-7 -16 -7 -31 -1 -38 6 -7 4 -26 -5 -51 -19 -56 -19 -71 2 -54 27 22 47 20 40
-4 -21 -71 -46 -198 -46 -234 0 -33 5 -45 21 -53 15 -9 24 -8 36 2 15 12 15
11 4 -10 -7 -12 -16 -20 -22 -17 -5 4 -15 3 -21 -2 -24 -15 -57 -9 -66 12 -28
61 -41 141 -46 275 -2 58 -7 116 -11 130 -16 61 -26 161 -36 381 -11 241 -9
269 27 364 13 32 -22 4 -50 -42 -17 -25 -32 -41 -34 -34 -6 19 45 165 90 259
31 63 59 101 122 165 44 46 102 94 129 108 26 13 46 28 44 34 -5 15 -116 18
-160 5 -52 -15 -56 -7 -12 20 43 26 80 38 120 38 25 1 27 -1 10 -7z m2528 -51
c3 -13 11 -18 20 -14 8 3 18 1 21 -5 8 -13 -31 -40 -52 -36 -9 1 -20 -2 -23
-7 -8 -12 -59 12 -59 28 0 13 57 54 76 54 7 0 14 -9 17 -20z m174 -3 c-11 -7
-53 -35 -95 -64 -42 -28 -79 -50 -81 -47 -8 8 54 65 101 92 47 28 115 44 75
19z m722 -76 c-12 -78 -45 -170 -82 -232 l-33 -54 42 -62 c69 -101 104 -224
103 -363 l0 -45 -30 75 c-34 84 -92 165 -156 218 -23 20 -41 37 -39 39 9 9 77
-28 115 -62 23 -21 41 -33 41 -27 0 12 -68 115 -107 161 -27 31 -31 33 -54 21
-23 -12 -23 -11 4 14 15 15 27 30 27 33 0 4 -17 -9 -37 -29 -35 -34 -79 -58
-106 -58 -6 0 36 46 94 103 89 86 112 115 147 185 23 46 47 104 54 130 9 36
13 41 18 26 4 -11 4 -44 -1 -73z m-1189 56 c0 -2 -10 -12 -22 -23 l-23 -19 19
23 c18 21 26 27 26 19z m-5996 -49 c-4 -7 -36 -57 -71 -112 -35 -54 -63 -103
-63 -108 0 -4 -5 -8 -10 -8 -7 0 -7 6 0 19 15 28 12 35 -7 20 -11 -10 -14 -10
-9 -1 4 7 2 12 -6 12 -7 0 6 17 28 38 23 20 52 53 64 72 30 45 61 80 72 80 5
0 6 -5 2 -12z m120 -33 c8 -22 -3 -43 -27 -51 -12 -3 -30 -13 -40 -22 -29 -26
-28 -8 3 41 30 48 53 59 64 32z m-216 -35 c-7 -10 -14 -17 -17 -15 -4 4 18 35
25 35 2 0 -1 -9 -8 -20z m7632 -20 c0 -11 -6 -20 -14 -20 -18 0 -29 16 -21 30
11 18 35 11 35 -10z m-7538 -72 c-7 -7 -12 -8 -12 -2 0 14 12 26 19 19 2 -3
-1 -11 -7 -17z m-178 -53 c-4 -8 -10 -13 -14 -10 -5 3 -11 -1 -13 -7 -4 -8 -6
-7 -6 4 -1 9 7 19 17 21 9 3 18 5 19 6 1 0 0 -6 -3 -14z m7711 -35 c3 -5 -1
-10 -9 -10 -9 0 -16 5 -16 10 0 6 4 10 9 10 6 0 13 -4 16 -10z m-3218 -36
c-15 -8 -42 -14 -60 -12 l-32 4 25 11 c14 7 41 12 60 12 l35 0 -28 -15z
m-4207 -4 c0 -5 -5 -10 -11 -10 -5 0 -7 5 -4 10 3 6 8 10 11 10 2 0 4 -4 4
-10z m43 -41 c-3 -10 -11 -20 -19 -23 -16 -6 -19 10 -4 19 6 4 8 10 6 14 -3 4
1 8 8 8 8 0 11 -8 9 -18z m-207 -34 c-5 -21 6 -57 24 -75 3 -3 6 -14 8 -24 3
-18 2 -18 -13 -2 -9 9 -21 16 -26 16 -5 0 -8 10 -6 23 1 12 -3 21 -9 20 -11
-2 -10 15 2 55 7 24 26 12 20 -13z m304 5 c0 -11 5 -20 10 -20 13 0 13 -37 -1
-46 -6 -3 -16 -1 -22 6 -9 10 -8 12 6 7 19 -7 21 0 7 23 -8 13 -11 12 -23 -4
-8 -11 -19 -16 -25 -12 -8 5 -6 13 5 26 9 10 20 17 25 14 4 -3 5 2 2 10 -3 9
-1 16 5 16 6 0 11 -9 11 -20z m-150 0 c0 -5 -2 -10 -4 -10 -3 0 -8 5 -11 10
-3 6 -1 10 4 10 6 0 11 -4 11 -10z m4937 -12 c39 -2 69 -6 67 -9 -2 -3 8 -4
21 -1 14 2 25 8 25 13 0 4 21 2 48 -6 26 -8 80 -21 121 -29 40 -9 78 -19 85
-25 6 -5 51 -21 100 -36 49 -15 97 -36 106 -45 10 -10 21 -15 25 -12 4 4 13
-2 21 -12 8 -11 14 -16 14 -11 0 4 8 1 18 -8 9 -8 66 -40 125 -71 135 -69 210
-85 322 -72 114 13 264 13 273 0 4 -6 17 -16 30 -23 26 -14 29 -31 6 -31 -13
0 -12 -6 9 -32 14 -18 30 -32 36 -31 15 4 20 -24 23 -127 1 -52 5 -99 9 -105
4 -5 10 -48 15 -95 4 -47 8 -92 9 -100 1 -8 2 -36 3 -62 2 -37 6 -48 21 -53
13 -4 18 -12 14 -21 -5 -13 -7 -13 -14 -2 -13 19 -11 0 2 -24 6 -11 7 -18 2
-15 -5 3 -25 -25 -44 -63 -22 -45 -41 -70 -53 -72 -13 -2 -20 -13 -22 -35 -4
-34 9 -45 20 -17 3 9 12 14 19 11 6 -2 33 7 60 20 26 13 68 26 95 30 l47 6
-30 -26 c-22 -19 -25 -26 -14 -27 9 0 19 -8 21 -18 4 -13 -5 -23 -33 -36 -42
-21 -90 -66 -70 -66 7 0 25 9 39 21 17 13 28 16 30 9 3 -8 8 -8 17 0 24 20 25
-7 1 -33 -21 -22 -95 -47 -142 -47 -17 0 -73 -40 -58 -40 5 -1 -29 -14 -74
-30 -46 -16 -93 -37 -104 -47 -11 -10 -35 -18 -54 -18 -29 0 -34 4 -39 30 -14
68 -16 70 -35 28 -10 -22 -21 -54 -25 -72 -4 -17 -10 -29 -15 -26 -15 9 -23
132 -11 182 17 76 20 112 10 118 -10 7 -50 -79 -69 -148 -8 -30 -25 -60 -46
-79 -18 -17 -38 -44 -44 -59 -13 -30 -30 -41 -49 -30 -9 6 -6 20 9 57 39 90
36 260 -5 294 -12 10 -13 6 -5 -18 4 -17 6 -33 3 -36 -3 -3 -5 -30 -4 -61 1
-47 -19 -115 -33 -115 -2 0 -2 21 0 48 l3 47 -10 -50 c-11 -58 -32 -107 -53
-124 -11 -9 -9 -1 5 28 28 58 24 101 -6 72 -6 -5 -31 -16 -58 -25 l-47 -16
-75 35 c-41 19 -79 35 -85 35 -22 0 -186 72 -235 103 -27 17 -95 55 -150 83
-55 29 -99 56 -98 62 1 6 -21 16 -49 22 l-51 13 29 12 c26 11 22 12 -36 8 -36
-3 -81 -9 -100 -15 -158 -45 -335 -140 -399 -215 -48 -57 -56 -36 -8 22 l32
40 -28 -18 c-46 -30 -40 -15 13 38 53 53 62 70 30 62 -11 -3 -20 -1 -20 4 0
17 95 116 192 198 43 38 50 67 23 99 -24 28 -51 110 -60 184 -5 43 -4 57 9 67
9 8 16 26 16 42 0 21 4 27 15 22 9 -3 14 -11 12 -17 -4 -12 21 -35 41 -36 13
0 17 36 4 44 -4 2 -9 19 -10 36 -1 18 -16 73 -33 124 -16 50 -35 129 -40 176
l-10 84 38 33 c23 20 30 30 18 26 -11 -3 -17 -3 -13 1 3 4 12 9 20 10 24 4 56
29 51 41 -2 7 11 20 30 28 73 35 61 34 264 25z m-5294 -100 c-89 -194 -199
-388 -219 -388 -8 0 -14 5 -14 10 0 18 37 86 98 178 32 48 82 136 112 195 63
125 80 128 23 5z m412 92 c3 -5 1 -10 -4 -10 -6 0 -11 5 -11 10 0 6 2 10 4 10
3 0 8 -4 11 -10z m7393 -34 c-2 -15 -10 -21 -28 -21 -30 0 -38 26 -14 49 20
21 47 4 42 -28z m-7450 -3 c8 -8 11 -17 7 -21 -3 -4 -13 2 -21 13 -8 11 -20
20 -26 20 -6 0 -13 6 -16 13 -4 12 0 12 19 1 13 -7 30 -18 37 -26z m-113 7 c3
-5 1 -10 -4 -10 -6 0 -11 5 -11 10 0 6 2 10 4 10 3 0 8 -4 11 -10z m195 0 c8
-5 11 -12 8 -16 -10 -9 -38 3 -38 16 0 12 10 13 30 0z m115 -20 c3 -5 1 -10
-4 -10 -6 0 -11 5 -11 10 0 6 2 10 4 10 3 0 8 -4 11 -10z m5290 -21 c14 -22
-3 -18 -26 7 -23 25 -23 26 -2 15 12 -6 25 -16 28 -22z m-5511 0 c-3 -5 -10
-7 -15 -3 -5 3 -7 10 -3 15 3 5 10 7 15 3 5 -3 7 -10 3 -15z m76 17 c0 -3 -4
-8 -10 -11 -5 -3 -10 -1 -10 4 0 6 5 11 10 11 6 0 10 -2 10 -4z m491 -41 c7
-13 3 -12 -10 5 -11 14 -21 30 -21 35 0 11 14 -7 31 -40z m-441 15 c10 -18 8
-19 -14 -10 -13 5 -27 6 -31 2 -3 -3 -3 1 1 11 8 23 31 22 44 -3z m70 11 c0
-13 -26 -32 -33 -24 -8 7 11 33 24 33 5 0 9 -4 9 -9z m40 -52 c0 -9 -4 -8 -15
1 -8 7 -15 19 -15 27 0 12 2 12 15 -1 8 -8 15 -20 15 -27z m-194 4 c-8 -8 -36
5 -36 17 0 7 6 7 21 0 11 -7 18 -14 15 -17z m5759 -106 c11 -11 -4 -3 -34 17
-54 37 -78 46 -65 24 13 -21 -66 46 -81 69 -11 16 11 6 72 -34 49 -31 97 -65
108 -76z m-5878 92 c2 -16 -1 -19 -9 -11 -5 5 -7 15 -4 21 10 15 12 14 13 -10z
m153 11 c0 -5 -4 -10 -10 -10 -5 0 -10 5 -10 10 0 6 5 10 10 10 6 0 10 -4 10
-10z m80 1 c0 -12 -20 -25 -27 -18 -7 7 6 27 18 27 5 0 9 -4 9 -9z m40 -1 c0
-5 -4 -10 -10 -10 -5 0 -10 5 -10 10 0 6 5 10 10 10 6 0 10 -4 10 -10z m-103
-32 c-3 -8 -6 -5 -6 6 -1 11 2 17 5 13 3 -3 4 -12 1 -19z m-42 2 c3 -5 1 -10
-4 -10 -6 0 -11 5 -11 10 0 6 2 10 4 10 3 0 8 -4 11 -10z m135 -35 c0 -10 -19
-5 -34 11 -9 8 -13 20 -10 26 6 9 44 -23 44 -37z m30 35 c0 -5 -2 -10 -4 -10
-3 0 -8 5 -11 10 -3 6 -1 10 4 10 6 0 11 -4 11 -10z m-428 -43 c-11 -18 -32
-57 -48 -87 -16 -30 -36 -66 -46 -78 l-17 -24 -7 26 c-9 39 60 182 95 194 38
13 44 5 23 -31z m815 21 c-3 -8 -6 -5 -6 6 -1 11 2 17 5 13 3 -3 4 -12 1 -19z
m-392 -39 c11 -17 -1 -21 -15 -4 -8 9 -8 15 -2 15 6 0 14 -5 17 -11z m6735 1
c0 -5 -2 -10 -4 -10 -3 0 -8 5 -11 10 -3 6 -1 10 4 10 6 0 11 -4 11 -10z
m-6800 -27 c0 -13 -3 -13 -15 -3 -8 7 -15 16 -15 21 0 5 7 6 15 3 8 -4 15 -13
15 -21z m224 11 c3 -8 2 -12 -4 -9 -6 3 -10 10 -10 16 0 14 7 11 14 -7z m-125
-28 c10 -12 8 -13 -8 -9 -12 3 -21 9 -21 14 0 14 16 11 29 -5z m75 -12 c9 -3
14 -10 11 -15 -7 -10 -35 0 -35 12 0 11 3 11 24 3z m6633 -51 c-3 -10 -5 -4
-5 12 0 17 2 24 5 18 2 -7 2 -21 0 -30z m-6475 -28 c3 -14 2 -25 -2 -25 -4 0
-10 11 -12 25 -3 14 -2 25 2 25 4 0 10 -11 12 -25z m3077 -19 c-6 -21 -13 -36
-16 -33 -3 3 0 22 7 42 7 20 14 35 16 33 2 -2 -1 -21 -7 -42z m-3205 19 c-4
-8 -8 -15 -10 -15 -2 0 -4 7 -4 15 0 8 4 15 10 15 5 0 7 -7 4 -15z m49 -5 c3
-11 1 -18 -4 -14 -5 3 -9 12 -9 20 0 20 7 17 13 -6z m37 -1 c0 -5 -4 -9 -10
-9 -5 0 -10 7 -10 16 0 8 5 12 10 9 6 -3 10 -10 10 -16z m-153 5 c-3 -3 -12
-4 -19 -1 -8 3 -5 6 6 6 11 1 17 -2 13 -5z m6680 -16 c-3 -8 -6 -5 -6 6 -1 11
2 17 5 13 3 -3 4 -12 1 -19z m-3437 -85 c-11 -17 -11 -17 -6 0 3 10 6 24 7 30
0 9 2 9 5 0 3 -7 0 -20 -6 -30z m-4586 -42 c-10 -10 -43 -10 -49 -1 -12 19 5
28 29 17 14 -7 23 -14 20 -16z m703 -21 c4 -8 5 -18 5 -22 -3 -15 77 -60 110
-62 18 -2 63 -20 99 -40 36 -20 71 -36 77 -36 6 0 47 -26 92 -57 44 -32 99
-68 122 -80 23 -13 38 -23 33 -23 -5 0 9 -19 32 -42 38 -40 70 -88 59 -88 -3
0 -27 20 -53 45 -26 24 -53 45 -58 45 -6 0 -58 33 -115 73 -58 40 -148 97
-200 127 -52 29 -124 70 -160 91 -73 41 -102 69 -92 85 10 16 37 23 40 10 2
-6 6 -18 9 -26z m-1097 26 c0 -8 -101 -79 -105 -74 -2 2 17 21 43 41 43 34 62
44 62 33z m5750 -37 c-12 -41 -24 -53 -14 -14 7 32 13 45 19 45 2 0 0 -14 -5
-31z m-5454 10 c3 -6 17 -8 29 -5 15 4 30 0 41 -11 10 -10 20 -17 23 -16 6 2
116 -48 189 -85 23 -12 35 -14 40 -6 4 6 16 14 27 18 17 5 23 0 33 -28 10 -27
22 -37 60 -51 26 -10 64 -29 84 -43 20 -13 43 -22 50 -19 7 2 -3 12 -24 22
-21 11 -38 22 -38 26 0 11 24 5 53 -14 32 -21 38 -21 31 -2 -4 8 -1 15 6 15 6
0 9 -4 6 -9 -7 -11 71 -34 86 -25 7 4 8 3 4 -4 -14 -23 25 -12 52 14 22 21 23
25 7 19 -40 -15 -63 -17 -70 -4 -6 9 -1 10 18 5 35 -9 44 10 10 22 l-28 10 28
1 c49 2 121 -49 116 -81 -1 -7 1 -21 6 -31 6 -15 11 -14 41 13 36 31 64 39 64
18 0 -6 -19 -29 -42 -50 -23 -21 -36 -38 -28 -38 10 0 11 -3 4 -10 -18 -18
-45 0 -38 24 6 20 5 20 -11 4 -24 -22 -16 -30 65 -72 62 -32 72 -35 85 -22 8
8 15 18 15 22 0 4 7 16 16 25 13 14 21 16 36 8 14 -7 23 -7 33 1 17 14 10 33
-22 68 -13 14 -21 27 -19 30 9 9 217 -133 290 -198 114 -100 261 -269 205
-234 -6 3 -3 -6 7 -22 18 -27 -178 171 -202 205 -18 26 -104 83 -104 70 0 -8
-8 -5 -20 6 -11 10 -20 14 -20 10 0 -5 -3 -6 -6 -3 -3 4 -1 16 6 27 15 30 -3
27 -35 -5 -28 -27 -41 -79 -24 -89 5 -4 3 -13 -6 -21 -15 -16 -35 -11 -35 8 0
5 7 8 15 4 16 -6 17 -1 6 27 -6 17 -8 17 -25 -1 -17 -20 -16 -22 21 -64 21
-23 44 -47 51 -51 7 -4 29 -26 50 -49 20 -22 53 -48 72 -58 36 -19 80 -60 64
-60 -6 0 -16 6 -23 13 -24 22 -7 -8 29 -53 19 -24 60 -71 90 -104 30 -33 -7
-2 -82 69 -78 73 -137 136 -135 144 1 9 -4 16 -10 16 -7 0 -13 5 -14 10 -1 15
-20 35 -29 30 -4 -2 -16 5 -26 16 -27 30 -202 153 -259 181 -140 71 -291 141
-347 163 -35 13 -143 57 -241 99 -97 42 -203 83 -235 92 -32 9 -67 26 -79 40
-27 29 -33 30 -26 3 5 -18 2 -20 -23 -17 -41 4 -45 40 -7 55 37 15 60 15 69 2z
m1664 -35 c0 -8 -5 -12 -10 -9 -6 4 -8 11 -5 16 9 14 15 11 15 -7z m-1085 -4
c3 -6 -1 -7 -9 -4 -18 7 -21 14 -7 14 6 0 13 -4 16 -10z m-55 -46 c0 -2 -7 -4
-15 -4 -8 0 -15 4 -15 10 0 5 7 7 15 4 8 -4 15 -8 15 -10z m5116 -41 c10 -68
8 -303 -3 -303 -10 0 -43 96 -43 128 0 19 -5 50 -11 67 -7 20 -9 53 -5 89 7
51 10 56 28 50 14 -4 18 -2 14 5 -4 6 -3 11 3 11 5 0 13 -21 17 -47z m-5129
-5 c-2 -22 -4 -22 -22 -4 -16 15 -12 23 9 23 8 0 14 -9 13 -19z m1233 -23 c7
-9 8 -15 2 -15 -5 0 -12 7 -16 15 -3 8 -4 15 -2 15 2 0 9 -7 16 -15z m-40 -5
c0 -5 -5 -10 -11 -10 -5 0 -7 5 -4 10 3 6 8 10 11 10 2 0 4 -4 4 -10z m6792
-25 c10 -35 4 -107 -12 -150 l-12 -30 -20 64 c-17 56 -18 69 -6 108 15 51 37
54 50 8z m-7847 15 c3 -5 -1 -10 -9 -10 -9 0 -16 5 -16 10 0 6 4 10 9 10 6 0
13 -4 16 -10z m-70 -20 c3 -5 1 -10 -4 -10 -6 0 -11 5 -11 10 0 6 2 10 4 10 3
0 8 -4 11 -10z m255 -5 c11 -13 10 -14 -4 -9 -9 3 -16 10 -16 15 0 13 6 11 20
-6z m890 5 c0 -5 -2 -10 -4 -10 -3 0 -8 5 -11 10 -3 6 -1 10 4 10 6 0 11 -4
11 -10z m-766 -29 c-2 -3 -12 3 -22 13 -16 17 -16 18 5 5 12 -7 20 -15 17 -18z
m736 -2 c0 -5 -4 -9 -10 -9 -5 0 -10 7 -10 16 0 8 5 12 10 9 6 -3 10 -10 10
-16z m60 11 c0 -5 -5 -10 -11 -10 -5 0 -7 5 -4 10 3 6 8 10 11 10 2 0 4 -4 4
-10z m-20 -46 c0 -8 -4 -12 -10 -9 -5 3 -10 10 -10 16 0 5 5 9 10 9 6 0 10 -7
10 -16z m-50 -4 c0 -5 -2 -10 -4 -10 -3 0 -8 5 -11 10 -3 6 -1 10 4 10 6 0 11
-4 11 -10z m-330 -20 c0 -5 -2 -10 -4 -10 -3 0 -8 5 -11 10 -3 6 -1 10 4 10 6
0 11 -4 11 -10z m360 -6 c0 -8 -4 -12 -10 -9 -5 3 -10 10 -10 16 0 5 5 9 10 9
6 0 10 -7 10 -16z m-735 -12 c30 -24 40 -55 17 -49 -52 15 -92 17 -92 6 0 -7
-3 -9 -7 -6 -6 6 46 67 57 66 3 0 14 -7 25 -17z m780 -2 c3 -5 1 -10 -4 -10
-6 0 -11 5 -11 10 0 6 2 10 4 10 3 0 8 -4 11 -10z m-75 -10 c0 -5 -2 -10 -4
-10 -3 0 -8 5 -11 10 -3 6 -1 10 4 10 6 0 11 -4 11 -10z m4001 -63 c-8 -8 -11
-7 -11 4 0 9 3 19 7 23 4 4 9 2 11 -4 3 -7 -1 -17 -7 -23z m-3995 -2 c1 -8 -2
-13 -7 -9 -5 3 -9 12 -9 21 0 19 13 9 16 -12z m4080 -61 c-4 -9 -9 -15 -11
-12 -3 3 -3 13 1 22 4 9 9 15 11 12 3 -3 3 -13 -1 -22z m-4578 -64 c17 -11 32
-25 32 -30 0 -6 -17 1 -37 17 -21 15 -40 28 -42 30 -2 2 0 3 5 3 5 0 24 -9 42
-20z m7517 -30 c0 -18 -6 -26 -21 -28 -26 -4 -40 24 -23 45 18 21 44 11 44
-17z m-7554 -17 c13 -16 12 -17 -3 -4 -17 13 -22 21 -14 21 2 0 10 -8 17 -17z
m3426 -20 c-9 -8 -48 8 -42 18 4 5 14 5 26 -2 12 -6 18 -13 16 -16z m-4316 -9
c52 -8 130 -26 174 -39 44 -12 93 -26 110 -30 16 -3 32 -10 35 -14 3 -5 55
-27 115 -50 107 -41 149 -58 210 -87 17 -8 46 -12 65 -9 l35 4 -25 -20 c-14
-11 -47 -31 -75 -46 -153 -79 -327 -246 -424 -408 -29 -47 -33 -60 -23 -75 7
-12 8 -21 2 -25 -10 -6 -25 -99 -19 -112 2 -4 10 -6 18 -5 7 2 22 -6 33 -18
12 -13 31 -21 46 -20 15 1 29 1 32 0 3 -1 16 -3 28 -4 13 -2 34 -15 46 -31 19
-24 24 -26 29 -12 8 22 33 22 45 1 8 -15 12 -15 42 1 23 12 75 20 171 26 215
14 311 52 446 173 l51 46 -18 -38 c-24 -49 -114 -133 -176 -165 -80 -40 -121
-48 -284 -56 -110 -6 -166 -13 -194 -25 -21 -10 -36 -19 -34 -21 2 -3 74 -14
158 -26 137 -19 164 -20 237 -9 109 16 200 60 285 139 36 33 69 61 73 61 4 0
45 -25 91 -56 85 -56 126 -103 164 -187 25 -54 28 -175 5 -184 -9 -3 -34 -32
-56 -65 -22 -32 -44 -56 -50 -53 -5 4 -5 15 2 28 6 12 -17 -6 -52 -41 -123
-123 -246 -169 -468 -174 -78 -2 -137 -7 -134 -12 4 -5 -6 -6 -21 -2 -42 10
-22 -12 31 -36 83 -36 208 -69 309 -81 l101 -12 -47 -77 c-101 -168 -198 -259
-324 -307 -88 -33 -200 -51 -311 -51 l-107 0 -39 -40 c-22 -22 -46 -40 -53
-40 -33 0 -126 44 -126 59 0 34 16 46 46 32 24 -11 30 -9 55 15 25 24 29 25
43 11 9 -9 16 -22 16 -31 0 -24 20 -29 40 -11 17 16 17 18 -7 80 l-26 63 39
47 c22 25 74 68 116 95 117 75 162 163 126 250 l-15 35 5 -57 c4 -50 2 -57
-18 -68 -12 -6 -43 -12 -68 -12 -55 0 -161 -35 -236 -77 -29 -17 -83 -42 -119
-55 -71 -27 -110 -24 -150 11 -19 18 -20 17 -9 -4 7 -12 22 -30 35 -40 13 -10
27 -24 31 -31 16 -27 -58 20 -111 70 -69 66 -74 93 -39 201 32 98 42 183 52
418 6 162 5 182 -14 245 -42 139 -103 206 -323 354 -181 121 -242 151 -324
159 l-60 6 43 25 c30 17 55 43 80 85 20 33 74 99 121 148 46 48 79 87 72 87
-6 0 -11 7 -11 15 0 9 6 12 17 8 11 -4 14 -3 9 5 -4 8 0 12 11 12 10 0 27 7
37 15 10 8 23 12 29 8 5 -3 7 3 3 14 -6 17 7 27 84 67 105 53 135 56 291 30z
m4099 -184 c0 -5 -5 -10 -11 -10 -5 0 -7 5 -4 10 3 6 8 10 11 10 2 0 4 -4 4
-10z m1515 -74 l60 -13 -37 -8 c-21 -4 -38 -12 -38 -18 0 -6 -3 -7 -7 -4 -3 4
-12 2 -19 -4 -13 -11 -145 -49 -169 -49 -6 0 -18 15 -26 34 l-16 34 66 20 c79
24 107 25 186 8z m-4980 -71 c-22 -19 -67 -48 -100 -65 -59 -31 -60 -31 -30
-5 41 36 146 105 159 105 6 -1 -7 -16 -29 -35z m264 -94 c38 -34 37 -56 -6
-64 -15 -3 -62 -19 -103 -37 -66 -28 -147 -53 -209 -65 -18 -3 -19 -1 -9 20 6
14 14 23 17 21 3 -2 7 14 8 37 3 40 19 73 55 111 10 11 18 23 18 27 0 4 19 19
42 33 l41 25 56 -40 c31 -21 71 -52 90 -68z m3302 22 c-8 -15 -10 -15 -11 -2
0 17 10 32 18 25 2 -3 -1 -13 -7 -23z m-1068 -12 c3 -11 -1 -22 -9 -25 -17 -6
-26 7 -18 28 8 22 21 20 27 -3z m2645 2 c-10 -2 -26 -2 -35 0 -10 3 -2 5 17 5
19 0 27 -2 18 -5z m-533 -62 c22 -15 54 -33 72 -40 73 -30 35 -59 -60 -47 -62
9 -117 40 -117 67 0 24 17 24 43 2 17 -16 16 -13 -4 21 l-22 38 24 -7 c13 -4
42 -19 64 -34z m601 -23 c9 -15 -25 -40 -51 -36 -12 2 -21 12 -23 26 -3 19 1
22 32 22 19 0 38 -5 42 -12z m1745 -46 c20 -18 29 -33 25 -41 -6 -9 -15 -6
-33 11 -57 53 -49 81 8 30z m-1874 -19 c26 -50 61 -74 114 -79 39 -3 40 -3 12
5 -48 12 -82 38 -89 67 -9 35 0 39 45 22 43 -17 90 -13 98 8 6 17 56 18 86 3
15 -9 22 -9 25 -1 5 15 53 -16 50 -32 -2 -6 8 -22 21 -35 l23 -23 -26 -27
c-23 -22 -40 -27 -124 -37 -67 -8 -83 -12 -52 -13 25 -1 63 -5 85 -10 40 -7
40 -7 -23 -14 -136 -15 -286 31 -371 113 -55 54 -52 68 6 24 54 -42 126 -79
168 -87 19 -4 8 4 -30 23 -75 36 -90 49 -92 77 -2 20 29 53 48 53 4 0 16 -17
26 -37z m-477 -13 c25 -7 87 -12 138 -13 l92 -2 12 -35 c15 -45 78 -132 121
-164 43 -33 84 -50 186 -76 46 -11 90 -28 99 -37 10 -10 26 -13 49 -10 20 4
33 2 33 -5 0 -6 14 -8 38 -3 l37 6 -35 -30 c-22 -19 -29 -30 -20 -31 9 0 5 -6
-10 -15 -24 -14 -24 -14 -4 -15 50 0 154 68 279 184 33 31 68 56 78 56 10 0
29 7 42 16 25 16 25 16 25 -18 0 -27 -13 -52 -51 -104 -28 -38 -61 -80 -73
-93 -18 -21 -19 -23 -3 -18 10 4 23 7 28 7 6 0 8 4 5 8 -3 5 10 26 29 47 30
32 39 37 65 32 28 -6 36 0 31 26 -1 5 3 6 8 3 5 -3 24 14 42 39 37 48 56 58
44 23 -22 -68 -13 -150 20 -193 20 -27 31 -8 34 58 2 60 3 66 21 127 15 53 14
152 -3 162 -16 10 35 28 112 39 112 16 152 -12 137 -95 -4 -20 2 -73 13 -127
13 -63 21 -154 25 -274 5 -147 10 -198 31 -278 14 -54 25 -110 25 -125 0 -63
-69 -122 -143 -122 -38 0 -100 31 -151 75 -43 37 -56 37 -56 -1 0 -29 -10 -30
-85 -4 -32 11 -75 20 -95 20 -20 0 -42 6 -49 13 -11 10 -13 10 -7 0 4 -8 2
-13 -6 -13 -21 0 -47 52 -38 75 4 11 24 36 44 54 33 32 49 60 26 46 -18 -11
-11 8 12 32 26 28 38 29 88 3 26 -13 40 -16 40 -9 0 14 14 3 16 -12 1 -5 2
-13 3 -17 0 -5 10 -18 22 -31 l21 -22 19 35 c24 45 24 49 0 34 -17 -11 -26 -5
-74 45 -55 56 -55 56 -103 50 -65 -7 -110 -31 -172 -91 -28 -27 -53 -48 -56
-45 -2 2 -14 -11 -26 -29 -13 -18 -46 -56 -74 -85 -65 -66 -86 -91 -85 -99 0
-4 -5 -10 -13 -15 -7 -5 -13 -12 -13 -16 -1 -4 -7 -19 -14 -32 -13 -23 -12
-23 15 -17 19 4 56 37 104 89 111 121 223 237 226 234 2 -1 -10 -29 -26 -61
-42 -82 -42 -157 -1 -212 36 -49 101 -110 170 -159 78 -56 98 -79 130 -149 32
-71 60 -96 109 -96 27 0 36 6 53 35 24 41 31 43 50 14 15 -22 102 -58 159 -66
19 -3 43 -14 53 -24 22 -24 51 -89 38 -89 -4 0 -31 18 -59 40 -55 44 -125 79
-158 80 -12 0 -42 -11 -65 -25 -56 -32 -67 -31 -141 6 -80 40 -111 37 -343
-36 -96 -30 -187 -55 -202 -55 -35 0 -58 14 -49 29 16 25 -61 11 -102 -19 -23
-17 -42 -25 -42 -19 0 6 -9 9 -19 6 -14 -3 -18 -1 -14 9 3 9 -2 14 -16 14 -20
0 -25 9 -22 37 1 7 -5 10 -12 7 -22 -8 -28 24 -12 63 15 36 15 36 -4 19 -20
-18 -92 -149 -90 -163 4 -21 -2 -34 -12 -27 -6 3 -8 16 -5 27 3 12 -3 55 -14
97 -18 70 -40 230 -38 275 1 11 6 23 11 27 8 4 7 18 0 42 -7 21 -7 38 -2 42 5
3 9 21 9 40 0 19 4 34 8 34 17 0 12 59 -5 70 -17 11 -17 11 0 6 10 -3 17 0 17
7 0 20 -17 40 -28 33 -14 -8 -34 19 -30 41 2 10 -2 17 -9 16 -7 -2 -10 3 -7
11 6 15 -21 46 -39 46 -8 0 -7 3 2 9 16 10 6 31 -14 31 -8 0 -25 11 -39 25
-14 14 -30 25 -36 25 -5 0 -10 4 -10 9 0 4 -16 23 -36 42 -77 71 -130 126
-154 158 -14 18 -42 53 -62 78 -32 37 -64 112 -72 169 -1 7 -5 17 -9 20 -4 4
-7 17 -7 29 0 11 -5 26 -12 33 -9 9 -9 12 1 12 10 0 11 3 2 13 -6 8 -8 17 -4
21 4 4 6 36 5 72 -3 63 -2 65 20 62 15 -2 22 2 20 11 -3 14 -3 14 88 -9z
m-4214 -11 c41 -25 42 -28 7 -21 -26 4 -27 3 -9 -10 17 -14 12 -16 -60 -22
-160 -14 -268 -53 -374 -132 -36 -27 -75 -49 -87 -49 -28 -1 -28 -1 -2 42 24
39 118 120 182 157 96 57 278 75 343 35z m6174 -14 c0 -9 -9 -15 -22 -15 -22
1 -23 1 -4 15 25 19 26 19 26 0z m233 -20 c25 -13 30 -13 44 0 32 33 70 7 48
-34 -45 -86 -165 -128 -281 -97 -33 8 -71 17 -86 21 -16 3 -28 10 -28 16 0 6
6 6 19 -1 46 -24 158 -5 190 33 11 14 11 18 -3 23 -9 3 -23 1 -31 -6 -8 -7
-15 -9 -15 -4 0 5 -6 2 -13 -7 -18 -24 -71 -33 -86 -15 -10 12 -8 16 11 22 13
4 28 7 34 6 6 -1 19 9 28 24 15 22 23 25 66 23 27 -2 53 0 56 4 10 10 15 9 47
-8z m-1212 -28 c-1 -12 -15 -9 -19 4 -3 6 1 10 8 8 6 -3 11 -8 11 -12z m-6879
-29 c33 -23 48 -40 48 -55 0 -20 -5 -23 -39 -23 -23 0 -48 8 -61 18 -19 16
-22 24 -16 55 4 20 10 37 14 37 4 0 28 -15 54 -32z m6831 -15 c-7 -2 -21 -2
-30 0 -10 3 -4 5 12 5 17 0 24 -2 18 -5z m-469 -18 c22 -16 30 -45 14 -45 -6
0 -8 7 -4 15 3 8 2 15 -2 15 -5 0 -17 7 -28 15 -10 8 -14 14 -9 14 6 0 19 -6
29 -14z m413 9 c-3 -3 -12 -4 -19 -1 -8 3 -5 6 6 6 11 1 17 -2 13 -5z m963 -9
c0 -8 -7 -15 -15 -15 -16 0 -20 12 -8 23 11 12 23 8 23 -8z m-1007 -2 c-7 -2
-21 -2 -30 0 -10 3 -4 5 12 5 17 0 24 -2 18 -5z m-1384 -109 c15 -122 11 -133
-42 -111 -19 9 -38 13 -41 10 -3 -3 -8 6 -12 21 -4 18 4 48 32 106 20 44 40
80 44 80 3 0 12 -48 19 -106z m3469 80 c4 -25 -24 -40 -44 -23 -8 6 -14 20
-14 31 0 29 54 21 58 -8z m-108 -3 c0 -26 -17 -36 -35 -21 -18 15 -8 40 16 40
12 0 19 -7 19 -19z m515 9 c3 -5 -1 -10 -9 -10 -8 0 -18 5 -21 10 -3 6 1 10 9
10 8 0 18 -4 21 -10z m-3551 -55 c4 -14 7 -28 7 -32 0 -5 5 -14 11 -20 14 -17
0 -17 -16 0 -17 17 -31 77 -18 77 5 0 13 -11 16 -25z m1900 -35 c19 -55 46
-266 46 -370 0 -94 11 -132 59 -215 47 -80 57 -124 37 -163 -23 -44 -159 -168
-200 -182 -61 -20 -63 -6 -3 28 32 18 71 51 92 79 34 45 35 49 29 107 -4 34
-17 102 -31 151 -18 69 -26 132 -33 270 -11 220 -19 320 -27 343 -4 11 -3 14
4 7 6 -5 18 -30 27 -55z m-1145 34 c2 -2 2 -7 -2 -10 -9 -9 -57 5 -57 16 0 9
47 4 59 -6z m-6196 -68 c51 -25 151 -105 112 -91 -112 42 -132 46 -215 42 -47
-2 -94 -7 -105 -11 -14 -6 -16 -5 -7 2 8 5 13 12 13 16 -5 37 2 58 22 66 35
15 122 4 180 -24z m7562 -150 c33 -31 44 -46 32 -46 -9 0 -17 -7 -17 -15 0 -8
-5 -15 -11 -15 -5 0 -8 -4 -5 -8 3 -5 -1 -9 -9 -9 -8 0 -15 9 -15 19 0 10 -4
19 -10 19 -5 1 -15 2 -21 3 -6 0 -24 36 -40 79 l-29 79 37 -30 c21 -17 60 -51
88 -76z m-6080 37 c-53 -48 -117 -83 -150 -82 -11 0 -14 3 -7 6 20 8 14 23
-10 24 -20 1 -20 2 7 14 17 7 41 16 55 19 24 7 24 6 6 -8 -11 -9 -14 -16 -8
-16 21 0 106 47 126 69 11 12 22 21 25 21 3 -1 -16 -21 -44 -47z m4995 7 c-20
-13 -33 -13 -25 0 3 6 14 10 23 10 15 0 15 -2 2 -10z m-6609 -170 c51 -26 176
-27 284 -1 69 17 83 17 105 6 l25 -14 -30 -1 c-16 0 -64 -10 -105 -21 -41 -11
-108 -22 -147 -24 -63 -4 -79 -1 -120 21 -56 30 -90 59 -109 96 -23 44 -16 44
22 -1 20 -23 53 -51 75 -61z m1149 90 c-20 -13 -60 -13 -60 0 0 6 17 10 38 10
27 0 33 -3 22 -10z m7195 -50 c3 -5 1 -10 -4 -10 -6 0 -11 5 -11 10 0 6 2 10
4 10 3 0 8 -4 11 -10z m-555 -32 c0 -5 -4 -8 -10 -8 -5 0 -10 5 -10 11 0 5 -4
7 -10 4 -5 -3 -10 1 -10 9 0 14 3 14 20 4 11 -7 20 -16 20 -20z m-39 -13 c5 4
9 1 9 -4 0 -11 -35 -10 -46 1 -3 4 -3 12 1 19 6 8 10 7 17 -5 5 -9 13 -14 19
-11z m96 -15 c-1 -12 -5 -16 -11 -10 -6 6 -16 6 -27 0 -12 -7 -19 -5 -23 6 -4
11 -2 15 6 11 7 -2 22 -1 33 4 11 4 21 8 22 8 1 1 1 -8 0 -19z m-8430 -37 c-3
-10 -5 -4 -5 12 0 17 2 24 5 18 2 -7 2 -21 0 -30z m999 -30 c-3 -32 -2 -74 4
-93 15 -49 15 -204 0 -274 -20 -95 -82 -148 -179 -150 -47 -1 -62 3 -101 30
-25 17 -68 58 -97 91 -33 39 -55 57 -61 51 -6 -6 -15 4 -24 29 -11 28 -14 67
-12 145 4 115 -7 146 -27 76 -7 -24 -17 -48 -22 -55 -11 -15 -4 -50 35 -176
50 -163 105 -246 220 -330 32 -23 58 -46 58 -51 0 -12 -62 -1 -104 19 -51 25
-136 120 -173 197 -55 111 -84 235 -89 378 -3 82 -1 118 5 105 5 -11 10 -30
10 -41 1 -12 7 -27 15 -33 12 -10 16 -5 26 26 7 21 16 42 21 47 5 6 36 -5 76
-25 56 -28 77 -34 129 -33 68 1 152 35 229 93 60 46 69 42 61 -26z m4964 -128
c6 -33 13 -69 15 -80 1 -11 14 -65 28 -120 14 -55 35 -152 46 -215 23 -120 67
-262 98 -310 63 -98 107 -176 105 -184 -2 -5 7 -20 20 -34 36 -40 -1 -13 -60
43 -85 80 -167 195 -190 267 -58 179 -113 613 -86 683 9 22 11 18 24 -50z
m-95 -105 c-11 -5 -33 -8 -50 -8 l-30 0 30 8 c17 4 39 8 50 8 l20 1 -20 -9z
m-3329 -226 c17 -92 -34 -365 -111 -589 -21 -60 -40 -117 -43 -125 -2 -8 -6
-26 -7 -40 -2 -29 -52 -131 -98 -201 -18 -26 -60 -99 -95 -162 -73 -131 -144
-209 -230 -253 -56 -28 -60 -29 -217 -29 -131 0 -166 3 -190 17 -41 22 -89 76
-105 116 -19 48 -8 152 19 191 13 17 19 31 14 31 -4 0 0 5 10 11 33 19 151 49
220 56 56 5 67 9 62 22 -3 11 41 65 140 170 80 84 145 157 145 163 0 6 -13 -4
-29 -21 -32 -34 -47 -40 -37 -15 4 12 -4 8 -26 -10 -55 -45 -148 -105 -205
-132 -85 -40 -224 -67 -313 -61 -90 6 -133 23 -195 77 -25 22 -49 40 -52 40
-11 0 41 -52 81 -81 34 -25 36 -29 17 -29 -13 0 -38 7 -57 16 -44 21 -233 218
-262 274 l-24 45 34 -37 c18 -20 69 -68 114 -106 91 -79 150 -100 234 -83 148
29 218 47 351 91 171 55 302 121 393 197 62 51 164 177 240 296 28 43 40 54
55 50 27 -7 33 -31 33 -120 0 -50 4 -73 11 -70 6 2 25 42 42 90 17 47 34 89
38 93 11 11 8 55 -7 96 -12 34 -12 37 8 46 32 16 35 15 42 -24z m-1041 -162
c-56 -47 -105 -82 -105 -74 0 12 39 47 75 65 33 18 44 21 30 9z m-777 -126
c17 -19 69 -99 115 -178 47 -79 144 -226 217 -328 73 -102 147 -215 166 -252
36 -72 58 -96 45 -50 -11 37 -38 90 -66 127 -13 17 -30 52 -39 78 -9 27 -23
63 -32 80 -13 28 -9 26 31 -17 77 -82 167 -290 151 -349 -5 -21 35 -108 89
-193 34 -52 79 -87 144 -110 l36 -13 -31 -1 c-17 0 -58 14 -92 31 -66 32 -129
104 -179 202 -31 61 -190 326 -315 524 -53 83 -116 186 -139 230 -24 43 -63
109 -87 147 -24 39 -45 76 -46 83 -1 7 -11 20 -22 29 -18 15 -18 15 2 5 12 -6
35 -26 52 -45z m229 -90 c66 -132 116 -176 201 -176 23 0 22 1 -7 26 -17 14
-31 33 -30 42 0 13 3 11 11 -5 6 -12 28 -34 50 -49 47 -33 39 -45 -31 -52 -76
-7 -113 22 -206 162 -74 112 -83 136 -47 136 12 0 31 -27 59 -84z m2358 3 c17
-63 19 -82 6 -74 -15 9 -52 117 -46 133 9 24 24 2 40 -59z m-2200 -88 c-9 -9
-35 22 -35 43 0 19 2 18 20 -9 10 -16 17 -31 15 -34z m4809 44 c-4 -8 -8 -15
-10 -15 -2 0 -4 7 -4 15 0 8 4 15 10 15 5 0 7 -7 4 -15z m63 -47 c-3 -8 -6 -5
-6 6 -1 11 2 17 5 13 3 -3 4 -12 1 -19z m31 -39 c-6 -4 -2 -9 10 -13 12 -4 24
-17 28 -29 3 -12 12 -29 19 -37 7 -8 18 -33 26 -55 12 -37 13 -38 19 -15 l6
24 25 -34 c91 -126 103 -149 97 -191 -4 -22 2 -47 16 -74 44 -81 68 -115 84
-114 11 0 12 2 5 6 -7 2 -13 9 -13 14 0 6 5 7 10 4 13 -8 13 8 -1 22 -6 6 -9
19 -6 29 4 16 5 15 6 -3 0 -13 7 -23 15 -23 16 0 66 -60 66 -78 0 -16 -17 -15
-23 1 -3 6 -4 2 -4 -10 1 -12 4 -21 7 -20 29 7 78 -45 86 -91 8 -47 15 -64 83
-202 36 -74 67 -138 69 -143 9 -19 -27 7 -38 29 -15 26 -50 33 -50 9 0 -8 4
-15 8 -15 4 0 9 -11 10 -26 2 -30 17 -60 44 -88 10 -12 17 -29 14 -38 -2 -10
-1 -18 4 -18 4 0 6 -11 5 -24 -3 -27 4 -40 27 -49 10 -3 32 -34 50 -68 32 -60
142 -273 152 -294 2 -6 9 -4 14 4 8 11 22 -10 61 -90 28 -58 53 -119 57 -136
6 -28 4 -31 -15 -26 -11 3 -34 18 -50 33 -16 16 -48 41 -70 55 -22 15 -54 49
-72 76 -19 29 -41 52 -56 55 -15 4 -22 12 -19 21 3 7 -7 27 -22 44 -15 17 -27
35 -27 39 0 5 -12 18 -27 30 -16 12 -28 28 -28 36 0 8 -4 14 -10 14 -15 0 -13
-11 11 -59 11 -24 21 -53 21 -64 0 -23 10 -52 35 -102 11 -21 -4 -10 -53 40
-125 127 -203 217 -198 229 3 7 -12 34 -32 60 -29 38 -38 45 -50 35 -11 -9
-14 -7 -14 15 0 18 -5 26 -17 26 -15 0 -16 -2 -3 -10 9 -6 10 -10 3 -10 -17 0
-36 37 -23 45 6 4 8 11 4 16 -3 5 -10 7 -15 4 -5 -3 -7 0 -4 7 3 7 -22 47 -55
88 -72 90 -152 228 -146 252 2 9 -3 19 -11 22 -12 5 -13 9 -3 21 11 13 10 14
-1 10 -17 -6 -56 77 -65 138 -3 23 -8 58 -10 77 -3 19 -7 78 -10 130 -2 52 -5
116 -7 141 -2 33 0 46 9 42 8 -3 11 24 10 102 -2 99 4 130 19 105 4 -6 1 -19
-7 -28 -12 -16 -11 -16 7 -2 35 27 53 48 48 54 -11 11 -24 6 -17 -6 4 -7 3 -8
-4 -4 -7 4 -12 14 -12 22 0 8 -3 13 -7 11 -5 -3 -8 11 -7 31 2 53 3 59 14 42
6 -9 5 -17 -2 -21z m989 5 c-3 -3 -12 -4 -19 -1 -8 3 -5 6 6 6 11 1 17 -2 13
-5z m461 -9 c-11 -11 -60 -16 -53 -5 3 5 18 10 32 10 15 0 24 -2 21 -5z m247
-6 c31 -8 42 -15 38 -25 -3 -8 1 -14 10 -14 8 0 17 -6 20 -12 3 -10 9 -10 26
0 11 6 30 12 40 12 11 0 23 5 26 10 10 16 35 12 35 -5 0 -9 11 -20 25 -25 30
-11 33 -36 5 -45 -27 -9 -25 -25 3 -25 26 0 53 -15 41 -23 -5 -2 -105 -5 -222
-6 -118 -1 -222 -5 -231 -10 -9 -5 -35 -12 -57 -14 -34 -4 -73 -16 -108 -33
-6 -3 0 4 14 15 l25 22 -30 -7 c-16 -3 -42 -18 -56 -33 -14 -15 -31 -25 -37
-23 -7 2 -12 0 -12 -5 0 -10 -142 -9 -159 1 -31 19 -75 166 -50 166 5 0 30 14
56 30 54 35 97 38 180 14 39 -11 57 -13 62 -5 9 13 126 26 244 26 72 0 84 2
70 13 -21 15 -14 15 42 1z m96 -28 c-8 -5 -20 -7 -28 -4 -21 8 -15 13 15 13
20 0 23 -3 13 -9z m406 -46 c28 -29 32 -39 26 -66 -4 -23 -3 -30 5 -25 17 10
15 -12 -5 -45 -17 -28 -41 -42 -28 -16 4 6 -2 1 -13 -13 -12 -14 -24 -22 -28
-18 -3 4 -15 3 -26 -3 -14 -7 -22 -6 -34 6 -14 13 -14 20 -4 45 18 43 -1 63
-51 55 -47 -8 -59 9 -21 29 16 8 46 33 68 55 46 47 63 46 111 -4z m-136 15 c5
0 9 -4 9 -10 0 -5 -11 -10 -25 -10 -16 0 -25 6 -25 16 0 11 5 14 16 10 9 -3
20 -6 25 -6z m-4754 -32 c-3 -8 -6 -5 -6 6 -1 11 2 17 5 13 3 -3 4 -12 1 -19z
m3 -22 c0 -3 -4 -8 -10 -11 -5 -3 -10 -1 -10 4 0 6 5 11 10 11 6 0 10 -2 10
-4z m3004 -32 c5 -14 4 -15 -9 -4 -17 14 -19 20 -6 20 5 0 12 -7 15 -16z
m1502 -240 c47 -16 74 -37 74 -57 0 -5 -8 -3 -17 4 -12 10 -11 4 6 -23 20 -34
21 -37 4 -32 -13 4 -11 0 7 -15 14 -11 19 -21 13 -21 -14 0 -18 -30 -4 -30 5
0 11 -9 14 -20 3 -13 0 -20 -10 -20 -8 0 -11 -4 -8 -10 3 -5 -1 -10 -10 -10
-9 0 -28 -11 -43 -25 -22 -21 -86 -40 -116 -35 -5 1 -12 -2 -15 -7 -10 -13
-71 -32 -71 -22 0 5 -9 9 -20 9 -11 0 -20 -4 -20 -10 0 -5 -5 -10 -11 -10 -6
0 -9 7 -6 15 10 24 -11 27 -33 5 -21 -21 -56 -22 -69 -2 -3 6 -15 11 -26 11
-36 0 -120 29 -117 40 1 6 -7 11 -18 11 -11 0 -23 7 -26 15 -4 8 -11 15 -18
15 -6 0 -36 25 -66 55 -42 42 -52 58 -41 64 11 7 11 9 0 13 -32 12 4 20 43 10
37 -10 46 -9 63 7 11 9 38 22 60 29 22 6 65 18 95 26 102 29 135 34 236 35 68
1 116 -4 150 -15z m-3433 -160 c-3 -9 0 -20 8 -24 7 -5 10 -13 5 -17 -13 -14
-37 28 -25 44 15 18 20 16 12 -3z m2857 -50 c0 -2 -7 -4 -15 -4 -8 0 -15 4
-15 10 0 5 7 7 15 4 8 -4 15 -8 15 -10z m-3515 -373 c3 -5 -1 -15 -8 -23 -21
-21 -27 -46 -17 -70 5 -13 9 -18 9 -11 1 7 7 10 15 7 7 -3 20 2 29 10 9 9 20
16 25 16 6 0 12 3 15 8 2 4 2 1 1 -5 -2 -7 1 -13 6 -13 6 0 10 -7 10 -15 0 -8
-6 -12 -14 -9 -15 6 -56 -52 -56 -80 0 -21 16 -21 24 1 6 15 8 15 16 3 7 -12
12 -12 22 -2 9 9 9 12 -2 12 -11 0 -11 3 -2 12 10 10 15 10 22 -1 5 -10 1 -20
-13 -32 -17 -14 -18 -18 -6 -19 8 0 20 5 27 12 9 9 11 4 9 -19 -1 -17 -5 -29
-9 -27 -11 7 -38 -8 -32 -17 3 -5 1 -9 -5 -9 -5 0 -11 6 -14 13 -3 9 -10 7
-23 -6 -11 -10 -14 -17 -9 -16 6 1 17 1 25 0 12 -1 11 -5 -4 -16 -14 -11 -16
-15 -5 -15 20 0 34 12 42 33 4 10 12 17 19 16 27 -3 38 2 63 28 14 15 25 24
25 20 0 -4 10 1 22 13 28 26 36 17 11 -12 -64 -73 -147 -158 -155 -158 -4 0
-8 6 -8 14 0 18 -22 24 -76 22 -47 -2 -57 19 -12 28 34 7 37 23 6 28 -13 2
-22 9 -20 16 1 6 -2 12 -7 12 -5 0 -11 -8 -13 -17 -2 -12 -14 -18 -36 -19
l-33 -2 20 22 c27 28 27 46 0 46 -11 0 -18 -4 -15 -9 4 -5 -3 -7 -13 -4 -13 3
-21 -2 -26 -17 -6 -20 -8 -20 -19 -4 -9 11 -15 13 -20 6 -4 -6 -13 -9 -20 -6
-8 3 -23 -8 -36 -26 -12 -17 -24 -29 -27 -26 -6 6 33 59 111 151 70 83 127
136 139 128 4 -3 11 4 14 16 6 22 18 27 28 12z m2074 -41 c5 -16 7 -30 3 -30
-10 0 -31 48 -24 55 8 8 9 7 21 -25z m2071 16 c0 -9 -65 -258 -102 -388 -25
-90 -46 -148 -53 -148 -16 0 -11 85 10 190 9 41 24 120 34 176 9 55 21 106 25
112 13 22 -6 12 -26 -13 -11 -14 -24 -23 -29 -19 -5 3 -8 2 -7 -3 3 -10 -37
-63 -84 -114 -27 -29 -41 -56 -16 -31 7 7 16 12 20 12 11 0 -44 -81 -68 -100
-15 -14 -16 -13 -10 10 7 24 6 24 -8 6 -9 -10 -13 -24 -9 -30 3 -6 2 -7 -2 -3
-5 4 -15 -3 -22 -15 -7 -13 -12 -18 -12 -13 0 6 8 24 17 41 9 17 30 57 47 90
29 59 102 154 118 154 5 0 23 10 40 23 59 42 137 79 137 63z m-2139 -33 c13
-16 12 -17 -3 -4 -10 7 -18 15 -18 17 0 8 8 3 21 -13z m-5251 -62 c0 -8 12
-28 27 -43 l27 -28 -23 -38 c-46 -78 -93 -202 -132 -349 -22 -84 -46 -115 -35
-45 3 20 8 56 11 79 3 23 28 111 55 194 28 83 48 154 46 157 -3 3 -9 -4 -13
-14 -3 -10 -16 -35 -28 -54 -19 -33 -41 -85 -97 -237 -13 -35 -26 -63 -30 -63
-12 0 -9 48 3 52 6 2 9 17 7 33 -4 29 -4 28 -17 -13 -11 -40 -15 -43 -38 -37
-27 7 -40 -5 -68 -63 -13 -26 -21 -32 -38 -28 -12 3 -17 3 -10 0 15 -7 5 -34
-13 -34 -22 0 -26 42 -9 84 9 21 13 41 10 44 -24 25 -123 -277 -175 -532 -7
-33 -19 -66 -27 -75 -14 -13 -15 -6 -8 70 16 197 79 440 154 594 69 141 125
214 208 268 37 24 93 63 122 85 51 39 56 41 73 25 10 -9 18 -23 18 -32z m6168
24 c-3 -3 -9 2 -12 12 -6 14 -5 15 5 6 7 -7 10 -15 7 -18z m-6768 -14 c0 -32
-16 -49 -31 -34 -11 11 8 63 23 63 4 0 8 -13 8 -29z m5010 -21 c0 -5 8 -7 18
-3 26 9 17 3 -108 -82 -63 -44 -151 -106 -195 -140 -101 -78 -176 -122 -301
-175 -109 -46 -288 -142 -374 -201 -59 -40 -309 -256 -424 -367 -39 -37 -64
-58 -56 -47 8 11 25 30 39 43 13 12 20 22 15 22 -4 0 11 19 34 43 23 24 39 47
35 52 -5 4 -3 5 3 2 6 -3 19 4 29 16 9 12 29 35 44 51 14 16 19 25 11 21 -29
-16 25 37 105 104 44 36 87 73 95 81 35 35 90 71 108 73 12 0 18 5 16 9 -3 4
-1 8 4 8 5 0 32 15 59 34 27 18 100 58 163 88 174 82 181 86 240 123 30 19 60
32 67 30 7 -2 15 0 18 5 4 6 12 10 18 10 12 0 -32 -39 -45 -40 -12 0 -79 -42
-75 -47 9 -8 145 72 185 110 23 23 42 37 42 32 0 -5 10 1 23 13 13 12 27 19
30 15 13 -12 56 19 50 36 -4 14 -3 14 6 1 10 -13 12 -12 10 6 0 3 12 16 28 30
15 13 29 28 29 34 1 5 2 12 3 15 2 9 51 5 51 -5z m-1038 -32 c-7 -7 -12 -8
-12 -2 0 6 3 14 7 17 3 4 9 5 12 2 2 -3 -1 -11 -7 -17z m978 18 c0 -3 -4 -8
-10 -11 -5 -3 -10 -1 -10 4 0 6 5 11 10 11 6 0 10 -2 10 -4z m1041 -37 c8 -17
8 -20 -2 -17 -7 2 -13 12 -15 21 -3 23 3 21 17 -4z m-1187 -54 c-10 -8 -23
-14 -29 -14 -5 -1 1 8 15 19 14 10 27 17 29 14 3 -2 -4 -11 -15 -19z m1211 4
c11 -16 1 -19 -13 -3 -7 8 -8 14 -3 14 5 0 13 -5 16 -11z m-1260 -39 c-3 -5
-11 -10 -16 -10 -6 0 -7 5 -4 10 3 6 11 10 16 10 6 0 7 -4 4 -10z m1280 -8
c-3 -3 -11 0 -18 7 -9 10 -8 11 6 5 10 -3 15 -9 12 -12z m-2240 -12 c3 -5 1
-10 -4 -10 -6 0 -11 5 -11 10 0 6 2 10 4 10 3 0 8 -4 11 -10z m-30 -30 c3 -5
1 -10 -4 -10 -6 0 -11 5 -11 10 0 6 2 10 4 10 3 0 8 -4 11 -10z m2290 1 c-3
-5 2 -17 11 -26 9 -9 14 -19 11 -22 -10 -10 -39 27 -33 42 3 8 8 15 11 15 4 0
4 -4 0 -9z m-696 -211 c22 -80 50 -188 61 -240 11 -52 25 -103 30 -112 5 -9
17 -59 27 -110 11 -56 19 -82 21 -65 6 50 19 28 41 -70 37 -168 43 -213 31
-227 -5 -8 -7 -22 -3 -32 6 -17 7 -16 15 2 6 14 7 9 5 -18 -2 -20 1 -34 5 -32
4 3 8 -1 8 -8 0 -7 5 -30 11 -50 7 -29 15 -38 32 -39 22 0 22 0 -2 -10 -16 -6
-28 -6 -36 1 -10 8 -15 6 -20 -10 -3 -11 -11 -18 -16 -14 -5 3 -8 1 -7 -4 2
-6 -1 -10 -7 -11 -5 -1 -10 4 -9 9 1 6 2 17 3 25 0 8 7 12 16 9 9 -4 15 0 15
9 0 9 -8 13 -25 12 -17 -2 -25 2 -25 11 0 9 5 12 10 9 11 -7 13 9 4 43 -4 13
-12 21 -19 18 -18 -7 -33 59 -105 469 -23 132 -30 161 -89 414 -23 96 -41 184
-41 195 1 41 26 -24 69 -174z m-1569 155 c-7 -9 -15 -13 -17 -11 -6 6 20 36
26 30 2 -2 -2 -10 -9 -19z m80 15 c0 -5 -5 -10 -11 -10 -5 0 -7 5 -4 10 3 6 8
10 11 10 2 0 4 -4 4 -10z m-36 -15 c-6 -16 -24 -21 -24 -7 0 11 11 22 21 22 5
0 6 -7 3 -15z m2311 -115 c31 -61 62 -113 71 -117 20 -7 85 -148 114 -246 13
-42 26 -77 31 -77 4 0 6 -11 5 -24 -3 -20 1 -23 20 -21 13 1 24 -2 24 -7 0
-13 26 -38 33 -32 3 3 3 -3 0 -15 -3 -11 -8 -20 -12 -19 -30 6 -104 -29 -238
-114 -51 -32 -96 -58 -102 -58 -5 0 -12 -7 -15 -16 -8 -20 -25 -9 -23 15 1 11
7 17 14 14 7 -3 13 2 13 10 0 9 8 22 18 29 9 7 23 21 31 31 14 17 13 17 -17 0
-17 -10 -29 -20 -26 -24 2 -4 -3 -9 -11 -13 -8 -3 -15 -1 -15 4 0 12 167 181
195 196 20 12 20 12 -2 33 -19 18 -20 24 -10 51 9 24 8 39 -7 77 -27 71 -35
110 -24 121 6 6 5 12 -3 17 -7 5 -10 4 -5 -3 3 -6 2 -13 -4 -17 -12 -7 -30 35
-30 71 0 13 -6 24 -12 24 -10 0 -10 2 0 8 9 6 6 20 -13 60 -14 29 -25 57 -25
63 0 5 -5 7 -12 3 -6 -4 -8 -3 -5 3 4 6 0 13 -8 17 -8 3 -15 11 -15 18 0 9 3
8 10 -2 6 -9 10 -10 10 -3 0 7 -9 17 -20 23 -23 13 -26 30 -5 30 9 0 37 -44
70 -110z m-5140 24 c2 -10 4 -23 4 -27 1 -5 6 -5 13 -1 7 5 8 3 3 -5 -4 -7
-10 -9 -14 -4 -3 4 -17 20 -30 35 -25 29 -20 61 6 35 8 -8 16 -23 18 -33z
m4489 -123 c24 -74 36 -138 41 -213 5 -73 -11 -37 -44 100 -18 75 -37 153 -42
173 -23 90 11 44 45 -60z m-99 49 c-3 -5 -1 -11 5 -15 5 -3 10 -18 10 -33 l0
-27 -14 27 c-13 25 -21 68 -16 93 1 6 5 -1 11 -13 5 -13 7 -28 4 -32z m26 -97
c13 -16 12 -17 -3 -4 -17 13 -22 21 -14 21 2 0 10 -8 17 -17z m-5191 -52 c0
-6 -4 -13 -10 -16 -5 -3 -10 1 -10 9 0 9 5 16 10 16 6 0 10 -4 10 -9z m3395
-1 c-9 -15 -45 -32 -45 -22 0 5 10 14 23 20 29 14 29 14 22 2z m2255 -156 c0
-20 -7 -17 -20 6 -9 16 -8 18 5 14 8 -4 15 -12 15 -20z m-6000 -44 c-7 -28
-15 -49 -17 -46 -3 3 0 28 7 56 7 28 15 49 17 46 3 -3 0 -28 -7 -56z m4160 56
c0 -2 -8 -10 -17 -17 -16 -13 -17 -12 -4 4 13 16 21 21 21 13z m-1463 -46 c-1
-22 -17 -28 -17 -7 0 12 9 27 16 27 2 0 2 -9 1 -20z m3357 -9 c3 -5 0 -11 -7
-14 -8 -3 -14 1 -14 9 0 16 13 19 21 5z m-5497 -242 c-8 -116 -17 -153 -34
-136 -8 8 16 327 26 342 12 20 16 -84 8 -206z m2103 170 c9 -16 8 -19 -10 -16
-31 5 -48 26 -30 37 17 10 26 6 40 -21z m3448 2 c3 -8 -1 -12 -9 -9 -8 3 -19
-2 -25 -10 -9 -12 -10 -10 -8 9 1 13 3 25 3 27 3 9 35 -5 39 -17z m-2108 -15
c0 -2 -8 -10 -17 -17 -16 -13 -17 -12 -4 4 13 16 21 21 21 13z m1700 -64 c14
-71 32 -149 61 -272 13 -52 22 -102 20 -110 -2 -12 0 -12 11 2 7 9 22 18 33
20 11 2 27 18 36 35 9 18 29 49 44 69 23 30 26 42 21 75 -7 47 8 86 28 70 7
-6 16 -7 20 -3 4 4 6 0 4 -8 -2 -9 4 -15 14 -15 9 0 20 -4 24 -8 4 -4 1 -7 -7
-7 -16 0 -23 -36 -8 -45 5 -4 9 -11 9 -17 0 -7 -5 -6 -14 1 -11 9 -16 9 -22 0
-4 -8 -3 -9 4 -5 20 12 13 -29 -9 -58 -20 -25 -64 -51 -80 -48 -11 2 -18 -38
-8 -44 18 -11 8 -23 -33 -42 -49 -22 -78 -33 -78 -28 0 2 -9 39 -20 82 -10 44
-24 113 -31 154 -6 41 -19 111 -30 155 -21 89 -24 119 -10 110 5 -3 15 -31 21
-63z m-73 26 c-3 -8 -6 -5 -6 6 -1 11 2 17 5 13 3 -3 4 -12 1 -19z m463 -4 c0
-8 4 -13 9 -9 5 3 12 2 15 -3 2 -4 -4 -8 -14 -9 -10 -1 -20 7 -23 18 -3 10 -1
19 4 19 5 0 9 -7 9 -16z m-1015 -91 c24 -54 45 -69 45 -33 0 11 -5 20 -11 20
-5 0 -7 -5 -3 -12 4 -7 3 -8 -4 -4 -17 10 -15 26 3 26 8 0 15 6 15 13 0 26 20
-19 20 -46 0 -16 4 -36 9 -45 11 -21 56 -244 71 -352 29 -215 52 -689 32 -677
-5 4 -13 1 -15 -5 -5 -13 -11 17 -8 36 1 5 -5 4 -13 -4 -9 -7 -16 -8 -16 -2 0
5 7 15 15 22 8 7 12 16 9 22 -3 5 0 16 7 24 11 14 10 15 -11 12 -16 -2 -24 2
-23 9 2 10 -3 10 -22 1 -21 -10 -28 -8 -40 8 -8 10 -14 28 -13 39 1 11 -1 25
-5 32 -16 25 -57 351 -88 688 -9 98 -14 246 -10 300 l2 20 15 -20 c9 -11 26
-44 39 -72z m1080 59 c-3 -3 -11 0 -18 7 -9 10 -8 11 6 5 10 -3 15 -9 12 -12z
m-60 -12 c3 -5 1 -10 -4 -10 -6 0 -11 5 -11 10 0 6 2 10 4 10 3 0 8 -4 11 -10z
m40 2 c6 -4 10 -19 11 -35 0 -17 -3 -24 -9 -18 -7 7 -18 6 -31 0 -20 -10 -20
-10 -2 5 11 9 16 16 12 16 -5 0 -3 6 3 14 9 11 9 15 -1 19 -7 3 -8 6 -3 6 6 0
15 -3 20 -7z m-165 -28 c0 -8 5 -12 10 -9 6 3 10 -1 10 -9 0 -9 3 -16 8 -16 4
0 13 -9 19 -20 11 -17 10 -18 -5 -13 -9 4 -28 13 -42 20 -20 10 -21 13 -6 13
13 0 16 4 9 13 -15 19 -24 49 -13 42 6 -3 10 -13 10 -21z m3050 -7 c0 -2 -9
-3 -20 -3 -11 0 -20 6 -20 13 0 11 5 11 20 3 11 -6 20 -12 20 -13z m-1220 -22
c-7 -8 -26 -15 -43 -15 -36 0 -27 14 11 16 14 0 28 7 30 13 2 7 7 10 9 7 3 -3
0 -12 -7 -21z m-4309 -1 c20 -12 8 -30 -18 -28 -16 1 -39 3 -52 3 -16 1 -21 5
-18 15 4 11 1 13 -10 9 -12 -5 -14 -3 -8 6 7 13 83 9 106 -5z m-721 -19 c14
-19 14 -19 -2 -6 -10 7 -18 18 -18 24 0 6 1 8 3 6 1 -2 9 -13 17 -24z m3817
10 c45 -10 32 -32 -23 -41 -48 -7 -175 -86 -348 -217 -89 -68 -242 -151 -394
-214 -68 -28 -86 -32 -99 -22 -12 10 -16 10 -23 -2 -6 -9 -8 -4 -6 16 3 27 7
30 38 31 83 4 370 139 480 226 36 29 90 70 120 91 29 21 71 54 93 74 40 35 40
35 -20 -6 -65 -44 -89 -53 -62 -23 10 10 14 22 10 27 -5 4 -3 5 3 2 7 -4 18 1
25 10 10 12 10 14 2 9 -7 -4 -13 -5 -13 -2 0 3 14 13 31 22 22 11 29 12 23 3
-4 -8 5 -3 21 10 30 23 54 24 142 6z m2443 5 c0 -5 -4 -10 -9 -10 -6 0 -13 5
-16 10 -3 6 1 10 9 10 9 0 16 -4 16 -10z m-9086 -137 c-6 -159 -12 -202 -25
-182 -5 8 -9 70 -9 139 0 98 3 130 16 148 8 12 17 22 19 22 3 0 2 -57 -1 -127z
m3623 110 c6 -17 -38 -28 -48 -12 -4 7 -5 17 -2 22 7 12 46 4 50 -10z m2529 1
c-4 -12 -2 -15 9 -10 13 4 14 2 5 -14 -6 -11 -16 -20 -23 -21 -7 0 -23 -2 -37
-5 -18 -3 -21 -2 -10 5 8 5 18 7 22 5 4 -3 8 0 8 6 0 6 5 8 10 5 7 -4 9 3 6
19 -3 14 0 26 6 26 5 0 7 -7 4 -16z m2903 12 c-2 -2 -15 -9 -29 -15 -24 -11
-24 -11 -6 3 16 13 49 24 35 12z m-5592 -22 c-3 -3 -12 -4 -19 -1 -8 3 -5 6 6
6 11 1 17 -2 13 -5z m5751 -36 c-2 -8 5 -12 15 -10 19 3 47 -19 47 -38 0 -6 5
-8 13 -4 8 5 8 2 -2 -9 -9 -11 -10 -17 -2 -17 6 0 11 -5 11 -12 0 -6 -13 1
-30 17 -16 15 -28 31 -27 35 1 5 -1 7 -4 7 -11 -3 -39 25 -33 34 8 13 14 11
12 -3z m-5608 -8 c8 -5 12 -11 9 -14 -3 -3 -14 1 -25 9 -21 16 -8 20 16 5z
m90 3 c0 -12 -33 -43 -46 -43 -9 0 -7 8 8 25 21 24 38 32 38 18z m-3165 -71
c-38 -32 -43 -20 -8 22 22 29 29 33 32 19 2 -10 -9 -27 -24 -41z m6399 19 c14
-21 30 -58 36 -82 28 -105 52 -168 74 -188 12 -11 56 -45 98 -73 93 -65 159
-124 156 -140 -2 -7 3 -13 10 -14 6 -1 17 -2 22 -3 6 0 10 -10 10 -21 0 -13 7
-20 20 -20 11 0 20 -5 20 -11 0 -5 -5 -7 -11 -4 -6 4 -5 -2 3 -14 7 -12 18
-19 25 -17 7 3 10 -1 7 -8 -3 -8 -1 -17 5 -21 6 -3 11 -14 10 -23 0 -14 -2
-14 -6 -2 -9 23 -30 40 -38 32 -5 -4 -5 -2 -2 4 7 12 -28 46 -37 37 -3 -4 -6
1 -6 11 0 10 -5 14 -12 10 -6 -4 -8 -3 -5 3 4 6 -1 17 -10 24 -14 12 -16 12
-8 -1 4 -8 -7 -1 -26 16 -19 17 -51 43 -72 59 -21 15 -35 30 -32 33 3 3 11 0
17 -6 17 -17 28 -15 22 3 -4 8 -11 15 -17 15 -7 0 -53 21 -104 47 -83 43 -94
52 -112 93 -12 25 -28 79 -37 120 -9 41 -19 86 -22 99 -3 15 -1 22 6 17 6 -4
8 2 5 14 -3 11 -9 23 -14 26 -9 5 -12 24 -4 24 3 0 16 -17 29 -39z m-3106 -12
c23 -17 42 -37 42 -45 0 -8 6 -13 13 -11 6 1 11 -4 9 -11 -3 -14 16 -36 36
-40 7 -1 26 -17 41 -35 16 -17 63 -67 103 -110 41 -43 85 -99 98 -125 25 -52
87 -159 106 -182 6 -8 32 -53 56 -100 25 -47 54 -101 66 -120 24 -39 28 -60
10 -60 -20 0 -54 41 -240 295 -82 112 -183 238 -246 305 -35 38 -49 60 -40 63
8 3 2 9 -15 16 -16 6 -25 15 -22 21 3 5 1 10 -5 10 -5 0 -25 14 -43 31 -17 17
-40 37 -50 44 -24 17 -29 51 -11 70 23 22 45 18 92 -16z m725 9 c108 -31 144
-65 276 -262 123 -184 195 -316 181 -330 -13 -13 -13 -73 0 -81 6 -4 7 1 4 12
-5 16 -4 16 10 -1 9 -11 16 -25 16 -30 0 -6 4 -5 9 3 5 8 11 -7 15 -45 4 -33
10 -79 13 -103 3 -30 2 -41 -6 -37 -7 5 -8 1 -5 -9 8 -20 -15 -67 -28 -59 -5
3 -2 11 6 17 12 9 13 16 5 27 -9 13 -10 12 -5 -2 3 -10 1 -18 -4 -18 -9 0 -12
8 -9 26 0 4 -4 10 -9 13 -6 4 -12 18 -14 33 -2 14 -10 33 -17 42 -7 9 -10 16
-6 16 5 0 1 8 -7 18 -9 9 -41 68 -73 131 -31 63 -64 126 -74 140 -10 14 -29
46 -41 71 -27 54 -115 172 -165 220 -30 29 -38 32 -46 20 -9 -12 -10 -12 -5 3
3 11 -2 26 -12 38 -15 15 -19 16 -19 4 0 -8 3 -15 6 -15 4 0 5 -18 3 -39 -2
-24 2 -48 11 -62 22 -33 64 -224 47 -214 -3 2 -12 0 -20 -5 -12 -7 -12 -13 0
-37 8 -15 16 -32 19 -37 2 -5 -2 -5 -10 0 -8 4 -20 9 -27 10 -21 4 -27 14 -8
14 9 0 14 5 11 10 -4 6 -11 8 -16 5 -5 -4 -9 3 -9 14 0 12 -4 21 -9 21 -10 0
-37 70 -46 120 -4 19 -11 55 -16 80 -18 85 -22 140 -11 153 8 10 10 72 2 72
-1 0 -2 17 -4 38 -2 20 -1 37 2 37 3 0 42 -10 85 -22z m-543 -53 c35 -30 67
-55 71 -55 3 0 4 10 2 23 -3 13 2 29 11 36 12 11 24 5 74 -36 33 -26 75 -73
93 -102 44 -71 103 -131 86 -87 -4 10 0 12 15 8 14 -3 19 -1 14 6 -3 6 -2 13
4 17 5 3 10 1 10 -5 0 -7 7 -5 16 4 25 25 40 19 52 -21 16 -55 20 -93 11 -93
-8 0 -12 12 -11 30 0 3 -16 6 -36 7 -31 2 -34 1 -14 -7 12 -5 22 -15 22 -22 0
-9 -3 -9 -8 -2 -4 6 -15 14 -26 17 -10 4 -16 13 -13 21 4 10 -1 14 -14 13 -10
-1 -19 -6 -19 -12 0 -5 -5 -3 -10 5 -9 13 -10 13 -10 0 1 -21 25 -51 35 -42 5
4 5 2 1 -5 -10 -17 32 -94 54 -100 22 -6 34 -30 19 -39 -6 -4 -5 -12 3 -22 11
-13 11 -14 -1 -8 -10 7 -12 3 -6 -15 4 -13 13 -33 20 -44 10 -17 10 -23 -2
-34 -8 -7 -12 -20 -9 -28 4 -10 -4 -7 -24 7 -30 21 -95 105 -180 229 -24 36
-66 90 -94 122 -28 31 -82 93 -121 139 -38 45 -76 88 -82 95 -14 15 -18 55 -5
55 4 0 36 -25 72 -55z m2220 50 c0 -2 -10 -9 -22 -15 -22 -11 -22 -10 -4 4 21
17 26 19 26 11z m2783 -129 c26 -21 47 -44 47 -52 0 -8 -29 -93 -65 -189 -36
-96 -65 -178 -65 -184 0 -5 -5 -22 -11 -38 -12 -27 -14 -36 -17 -78 -2 -15 -4
-17 -11 -7 -5 9 -17 -20 -35 -85 -23 -87 -25 -92 -21 -43 8 98 67 306 156 549
l23 64 -34 29 c-19 16 -35 34 -36 41 0 6 -2 17 -2 22 -1 6 -16 25 -32 44 -17
18 -28 37 -25 42 4 5 23 -10 43 -34 20 -24 58 -60 85 -81z m-6823 104 c-8 -5
-19 -10 -25 -10 -5 0 -3 5 5 10 8 5 20 10 25 10 6 0 3 -5 -5 -10z m3960 -35
c0 -9 -82 -56 -88 -51 -3 3 -3 7 -1 9 2 2 17 13 33 25 26 20 56 29 56 17z
m2740 -5 c8 -5 12 -11 10 -14 -3 -2 -14 2 -24 10 -22 15 -10 19 14 4z m-6873
-6 c-3 -3 -12 -4 -19 -1 -8 3 -5 6 6 6 11 1 17 -2 13 -5z m-82 -15 c-22 -4
-56 -7 -75 -7 -32 1 -31 2 10 8 25 4 59 7 75 7 25 1 23 -1 -10 -8z m-1291
-166 c4 -54 9 -131 13 -170 5 -67 4 -73 -13 -73 -18 0 -19 11 -22 170 -4 186
11 234 22 73z m3198 -35 c49 -45 92 -87 95 -96 4 -8 22 -38 41 -66 19 -28 47
-78 62 -111 15 -33 42 -76 60 -95 18 -19 42 -50 53 -70 60 -104 77 -136 76
-150 0 -10 -2 -11 -6 -2 -2 6 -9 10 -14 6 -5 -3 -9 0 -9 5 0 6 -7 11 -16 11
-9 0 -12 -5 -8 -12 4 -7 3 -8 -4 -4 -7 4 -12 16 -12 26 0 10 -5 22 -12 26 -7
4 -8 3 -4 -4 4 -7 3 -12 -2 -12 -12 0 -22 24 -22 52 0 12 -3 18 -7 15 -3 -4
-22 17 -42 46 -37 55 -56 77 -66 77 -3 0 -3 -4 0 -10 3 -5 4 -10 2 -10 -3 0
-16 21 -30 48 -64 122 -79 148 -97 167 -11 12 -20 24 -20 28 0 3 -29 37 -64
74 -82 87 -110 123 -96 123 6 0 8 4 5 10 -4 6 1 7 12 3 16 -6 17 -5 3 12 -32
39 31 -6 122 -87z m-1358 22 c-19 -19 -50 -53 -68 -75 -31 -36 -36 -38 -57
-27 -13 7 -16 11 -7 8 9 -3 19 2 23 12 5 12 8 13 14 4 10 -16 19 -6 55 63 20
40 31 50 51 50 25 0 25 0 -11 -35z m-1331 -92 c72 -96 80 -108 74 -108 -7 0
-103 125 -132 170 -37 61 -20 42 58 -62z m1275 83 c-13 -21 -67 -56 -74 -48
-9 8 18 45 41 56 34 17 47 14 33 -8z m-2480 -61 c-7 -10 -14 -17 -17 -15 -4 4
18 35 25 35 2 0 -1 -9 -8 -20z m599 -52 c-3 -7 -5 -2 -5 12 0 14 2 19 5 13 2
-7 2 -19 0 -25z m1581 -18 c-49 -31 -118 -62 -118 -54 0 3 -10 -1 -22 -7 -13
-6 -19 -8 -15 -3 10 11 178 92 192 93 6 0 -11 -13 -37 -29z m1508 22 c14 -8
63 -108 68 -137 5 -23 36 -101 64 -160 10 -22 29 -80 42 -130 12 -49 26 -94
31 -99 5 -6 9 -22 9 -36 0 -15 3 -29 6 -33 15 -14 12 -88 -4 -103 -11 -12 -13
-21 -6 -33 6 -9 11 -34 13 -56 1 -22 6 -44 11 -49 5 -5 6 -14 3 -21 -3 -9 -14
-3 -34 17 -26 28 -29 29 -29 11 0 -24 -26 -38 -34 -20 -4 7 -4 2 -2 -10 5 -28
-21 -39 -29 -12 -4 10 -10 17 -15 14 -5 -3 -11 -1 -15 5 -3 5 -1 10 5 10 6 0
0 15 -13 33 -31 42 -35 53 -62 172 -13 55 -34 150 -48 210 -14 61 -32 151 -40
202 -13 87 -13 91 5 90 20 -1 25 -17 6 -17 -9 0 -8 -4 2 -10 8 -5 11 -10 5
-10 -5 0 -1 -7 9 -15 11 -8 16 -15 12 -15 -4 0 2 -13 14 -30 16 -22 17 -28 6
-24 -13 5 -14 2 -5 -25 6 -17 15 -31 20 -31 5 0 8 -3 7 -7 -4 -12 25 -137 32
-143 6 -5 30 -91 32 -117 1 -7 5 -13 10 -13 5 0 7 8 4 18 -7 23 -37 169 -42
207 -5 41 -10 66 -18 95 -3 14 -8 39 -10 55 -2 17 -6 37 -9 45 -19 55 -36 139
-31 158 7 23 12 26 30 14z m2134 -12 c0 -5 -2 -10 -4 -10 -3 0 -8 5 -11 10 -3
6 -1 10 4 10 6 0 11 -4 11 -10z m-5540 -153 c5 -92 4 -134 -4 -139 -19 -12
-25 22 -25 148 -1 110 4 143 17 129 3 -3 9 -65 12 -138z m3330 118 c0 -8 -4
-15 -10 -15 -5 0 -7 7 -4 15 4 8 8 15 10 15 2 0 4 -7 4 -15z m-2249 -76 c11
-5 17 -14 14 -20 -4 -5 -1 -9 5 -9 6 0 9 -4 6 -9 -4 -5 5 -22 18 -38 13 -15
37 -61 54 -100 26 -63 29 -78 20 -110 -5 -21 -19 -78 -30 -128 -20 -92 -46
-156 -32 -80 5 22 8 58 9 80 0 22 6 65 13 96 l13 56 -61 128 c-72 152 -73 158
-29 134z m569 -19 c-6 -11 -18 -20 -26 -20 -8 0 -56 -36 -105 -80 -130 -114
-182 -150 -196 -135 -9 10 11 30 90 88 56 42 116 89 133 106 28 27 85 60 107
61 4 0 3 -9 -3 -20z m3716 -30 c8 0 11 -6 8 -15 -5 -11 -2 -13 10 -9 10 4 16
1 16 -9 0 -8 7 -18 16 -21 9 -3 14 -11 12 -18 -2 -6 9 -24 24 -40 15 -16 29
-38 29 -48 2 -29 3 -32 27 -70 27 -42 27 -51 5 -44 -10 3 -6 -2 8 -10 15 -8
29 -23 33 -31 4 -10 2 -14 -5 -9 -7 4 -10 2 -8 -5 3 -7 8 -11 13 -9 13 5 36
-45 29 -66 -3 -12 -1 -16 6 -12 18 11 13 -5 -6 -21 -17 -13 -17 -14 3 -8 27 7
52 -39 33 -61 -10 -12 -9 -13 5 -8 9 3 16 2 16 -3 0 -19 -13 -22 -35 -7 -12 8
-29 12 -37 9 -8 -3 -23 3 -33 15 -15 17 -16 24 -6 46 10 23 10 25 -9 19 -27
-9 -25 3 3 15 19 8 19 9 -8 6 -16 -3 -34 -5 -40 -5 -5 -1 -3 -6 5 -11 13 -8
13 -10 -1 -10 -22 0 -31 11 -18 26 7 8 6 14 -2 20 -8 5 -9 3 -4 -6 5 -8 3 -11
-6 -8 -8 3 -13 11 -11 17 1 6 -3 11 -9 11 -6 0 -3 8 7 18 19 18 46 23 42 7 -2
-5 -9 -9 -15 -9 -7 1 -13 -2 -13 -7 0 -9 15 -13 33 -10 5 1 6 -3 2 -9 -3 -5 0
-10 8 -10 15 0 15 18 2 56 -7 23 -24 25 -47 6 -8 -6 -18 -9 -21 -5 -4 3 -7 0
-7 -8 0 -8 -6 -4 -16 9 -8 12 -12 27 -8 34 4 6 3 8 -3 5 -9 -6 -53 64 -53 85
0 6 10 8 23 5 21 -6 21 -5 -3 15 -14 11 -24 25 -22 29 1 5 -2 9 -8 9 -5 0 -6
7 -3 17 4 10 2 14 -4 10 -6 -4 -13 4 -15 18 -3 14 0 26 8 29 8 3 14 13 14 23
0 15 -2 15 -16 -3 -8 -10 -13 -13 -9 -6 4 7 -1 12 -12 13 -17 1 -17 2 0 6 11
3 16 11 13 19 -3 9 -1 12 4 9 6 -3 15 6 21 22 6 16 13 22 16 16 3 -7 11 -13
19 -13z m-1007 -13 c8 -10 7 -14 -4 -14 -8 0 -16 6 -19 14 -3 7 -2 13 3 13 5
0 14 -6 20 -13z m-3544 -25 c5 -12 13 -22 18 -22 4 0 5 -4 2 -10 -12 -20 -32
-9 -48 26 -17 34 -17 35 0 32 10 -2 22 -13 28 -26z m3585 8 c0 -5 -2 -10 -4
-10 -3 0 -8 5 -11 10 -3 6 -1 10 4 10 6 0 11 -4 11 -10z m-2260 -9 c0 -14 -28
-33 -39 -27 -5 4 -19 -4 -31 -16 -24 -26 -60 -33 -60 -11 0 7 8 16 18 20 9 3
24 12 32 18 24 20 80 31 80 16z m-1333 -57 c-3 -3 -12 -4 -19 -1 -8 3 -5 6 6
6 11 1 17 -2 13 -5z m69 -19 c5 -22 20 -30 45 -27 4 1 5 -8 2 -18 -4 -13 0
-20 10 -20 8 0 20 -14 27 -31 11 -26 11 -33 -1 -41 -11 -8 -10 -9 3 -4 23 7
45 -66 30 -98 -6 -12 -20 -55 -32 -96 -22 -74 -48 -130 -61 -130 -10 0 0 109
11 131 6 10 7 19 3 19 -5 0 -7 18 -5 40 5 52 -37 178 -82 244 -16 23 -17 28
-5 24 9 -3 22 -2 30 3 10 6 8 9 -11 9 -20 0 -22 2 -10 10 25 16 39 11 46 -15z
m1124 1 c8 -11 10 -17 4 -13 -6 3 -21 -3 -33 -14 -21 -20 -41 -18 -41 4 0 10
53 52 55 44 0 -1 7 -11 15 -21z m-84 -29 c-4 -35 -14 -47 -40 -47 -13 0 -35
-9 -49 -21 -15 -11 -32 -19 -39 -17 -7 1 -23 -3 -36 -10 -12 -7 -27 -10 -32
-7 -6 3 -10 2 -10 -4 0 -5 6 -12 13 -14 6 -3 1 -6 -13 -6 -15 -1 -32 5 -38 11
-10 10 -15 10 -22 -2 -7 -11 -12 -12 -21 -3 -16 16 -92 -57 -77 -74 7 -9 1
-23 -20 -50 -52 -65 -115 -89 -95 -36 21 56 190 213 230 213 9 0 24 6 32 13
27 24 95 45 124 40 16 -3 27 -1 27 6 0 6 9 11 19 11 11 0 23 5 26 10 11 18 23
10 21 -13z m7703 -116 c1 -24 0 -24 -13 -6 -8 11 -12 23 -10 27 2 4 0 9 -6 13
-12 7 -14 68 -2 79 7 8 29 -71 31 -113z m-8486 55 c8 -21 -16 -49 -39 -44 -25
4 -31 45 -7 51 33 8 41 7 46 -7z m251 -42 c18 -18 20 -32 6 -54 -12 -20 -28
-4 -36 38 -7 35 5 42 30 16z m216 -69 c-38 -28 -40 -29 -40 -15 0 10 47 39 64
40 6 0 -5 -11 -24 -25z m3442 -29 c7 4 8 2 4 -4 -11 -18 -26 -14 -25 6 0 10 3
12 6 4 2 -6 10 -9 15 -6z m-3142 -86 c11 -6 34 -32 52 -58 17 -26 66 -89 107
-141 64 -79 90 -121 76 -121 -4 0 -176 207 -215 259 -20 27 -30 32 -48 27 -12
-4 -102 -91 -201 -193 -169 -175 -228 -223 -168 -136 28 41 359 373 371 373 4
0 16 -5 26 -10z m3187 -30 c-2 -22 -8 -44 -12 -48 -4 -4 -4 3 -1 15 5 15 2 24
-10 31 -9 5 -14 15 -10 21 4 6 12 9 17 6 5 -4 9 -1 9 4 0 6 2 11 6 11 3 0 3
-18 1 -40z m-3023 -2 c23 -32 20 -38 -14 -25 -29 11 -38 26 -23 40 11 12 21 8
37 -15z m3424 -13 c-3 -3 -9 2 -12 12 -6 14 -5 15 5 6 7 -7 10 -15 7 -18z
m-5623 -24 c3 -5 1 -12 -5 -16 -5 -3 -10 1 -10 9 0 18 6 21 15 7z m5685 -34
c0 -2 -8 -3 -18 -3 -10 0 -19 6 -19 13 0 8 6 9 19 2 10 -5 18 -11 18 -12z
m-5670 -17 c0 -11 -4 -20 -9 -20 -7 0 -8 17 -2 38 4 10 11 -2 11 -18z m5666
-19 c-3 -5 1 -14 9 -21 8 -7 15 -18 15 -24 0 -6 -9 0 -19 14 -17 22 -19 40 -5
40 3 0 3 -4 0 -9z m69 -9 c-3 -3 -11 0 -18 7 -9 10 -8 11 6 5 10 -3 15 -9 12
-12z m-4701 -21 c3 -5 -1 -11 -9 -15 -9 -3 -15 0 -15 9 0 16 16 20 24 6z m-14
-51 c0 -5 -4 -10 -10 -10 -5 0 -10 5 -10 10 0 6 5 10 10 10 6 0 10 -4 10 -10z
m175 -69 c3 -5 2 -12 -3 -15 -5 -3 -9 1 -9 9 0 17 3 19 12 6z m-1139 -61 c5
-24 3 -32 -4 -25 -5 6 -13 26 -17 45 -5 25 -4 32 4 25 6 -6 14 -26 17 -45z
m24 -115 c0 -8 -4 -15 -10 -15 -5 0 -10 7 -10 15 0 8 5 15 10 15 6 0 10 -7 10
-15z m6505 -244 c-11 -10 -16 -11 -240 -44 -155 -22 -321 -27 -365 -9 -20 8
-8 11 65 16 50 3 170 13 268 22 98 9 184 14 191 11 7 -3 19 -1 27 4 19 12 66
12 54 0z m-1207 -98 c-10 -2 -28 -2 -40 0 -13 2 -5 4 17 4 22 1 32 -1 23 -4z
m-68 -7 c0 -2 -13 -6 -30 -8 -16 -3 -30 -1 -30 4 0 4 14 8 30 8 17 0 30 -2 30
-4z m-3319 -23 c13 -16 12 -17 -3 -4 -17 13 -22 21 -14 21 2 0 10 -8 17 -17z
m3279 -259 c0 -20 -7 -17 -20 6 -9 16 -8 18 5 14 8 -4 15 -12 15 -20z m-4458
-108 c-58 -60 -79 -75 -47 -32 8 10 12 23 8 29 -3 6 -1 7 6 3 7 -5 26 8 48 33
21 22 39 38 42 36 2 -3 -23 -34 -57 -69z m-77 -86 c-3 -5 -12 -10 -18 -10 -7
0 -6 4 3 10 19 12 23 12 15 0z m-18 -26 c-3 -3 -12 -4 -19 -1 -8 3 -5 6 6 6
11 1 17 -2 13 -5z m5597 -30 c23 -9 9 -24 -20 -24 -36 0 -62 -16 -79 -51 -19
-35 -42 -34 -37 2 6 38 51 79 88 79 18 0 39 -3 48 -6z"/>
<path d="M6066 7568 c-3 -13 -5 -32 -5 -43 1 -11 5 -2 10 19 10 42 6 62 -5 24z"/>
<path d="M7865 8300 c3 -5 13 -10 21 -10 8 0 12 5 9 10 -3 6 -13 10 -21 10 -8
0 -12 -4 -9 -10z"/>
<path d="M8937 7726 c-7 -18 8 -40 22 -32 6 4 11 13 11 21 0 18 -27 27 -33 11z"/>
<path d="M8935 7660 c-4 -12 -5 -24 -2 -27 3 -2 8 5 12 17 4 12 5 24 2 27 -3
2 -8 -5 -12 -17z"/>
<path d="M8257 7090 c7 -52 10 -59 18 -38 4 9 -1 31 -9 49 l-15 34 6 -45z"/>
<path d="M8809 7061 c-28 -28 -50 -123 -24 -101 15 13 58 108 53 120 -2 4 -15
-4 -29 -19z"/>
<path d="M2014 7615 c11 -8 27 -15 35 -15 11 0 10 4 -5 15 -10 8 -26 14 -34
14 -11 0 -10 -3 4 -14z"/>
<path d="M2142 7608 c-7 -7 -12 -16 -12 -20 0 -15 15 -8 28 12 13 22 3 27 -16
8z"/>
<path d="M1997 7599 c7 -7 15 -10 18 -7 3 3 -2 9 -12 12 -14 6 -15 5 -6 -5z"/>
<path d="M2535 7499 c6 -33 15 -36 15 -6 0 15 -4 27 -9 27 -6 0 -8 -10 -6 -21z"/>
<path d="M2400 7466 c0 -2 7 -7 16 -10 8 -3 12 -2 9 4 -6 10 -25 14 -25 6z"/>
<path d="M2400 7424 c0 -8 5 -12 10 -9 6 4 8 11 5 16 -9 14 -15 11 -15 -7z"/>
<path d="M2535 7260 c10 -11 20 -20 23 -20 3 0 -3 9 -13 20 -10 11 -20 20 -23
20 -3 0 3 -9 13 -20z"/>
<path d="M2670 7146 c0 -2 8 -10 18 -17 15 -13 16 -12 3 4 -13 16 -21 21 -21
13z"/>
<path d="M2070 6253 c0 -5 9 -19 20 -33 18 -23 20 -24 20 -4 0 20 -17 44 -32
44 -4 0 -8 -3 -8 -7z"/>
<path d="M7610 6710 c0 -6 -12 -22 -26 -35 -15 -14 -24 -25 -20 -25 18 0 66
32 76 50 9 17 8 20 -10 20 -11 0 -20 -5 -20 -10z"/>
<path d="M6960 6630 c-23 -7 -23 -8 -3 -9 12 -1 25 4 28 9 3 6 5 10 3 9 -2 -1
-14 -5 -28 -9z"/>
<path d="M8230 6244 c0 -6 7 -19 16 -30 14 -18 14 -18 3 6 -14 31 -19 36 -19
24z"/>
<path d="M7352 6047 c-30 -32 -27 -40 8 -22 17 9 30 22 30 30 0 21 -13 18 -38
-8z"/>
<path d="M7660 5720 c-9 -6 -10 -10 -3 -10 6 0 15 5 18 10 8 12 4 12 -15 0z"/>
<path d="M8701 6325 c26 -69 34 -85 41 -85 10 0 -18 71 -34 85 -7 7 -9 7 -7 0z"/>
<path d="M6560 4465 c0 -8 4 -15 10 -15 5 0 7 7 4 15 -4 8 -8 15 -10 15 -2 0
-4 -7 -4 -15z"/>
<path d="M6936 4467 c3 -10 9 -15 12 -12 3 3 0 11 -7 18 -10 9 -11 8 -5 -6z"/>
<path d="M6954 4413 c3 -10 8 -30 11 -45 4 -14 18 -36 31 -49 29 -27 30 -39 4
-39 -11 0 -20 -4 -20 -10 0 -16 23 -60 32 -60 4 0 8 -6 8 -14 0 -8 7 -16 15
-20 18 -7 15 15 -4 30 -8 6 -11 18 -8 28 4 9 1 16 -6 16 -9 0 -9 2 1 8 6 5 11
20 10 34 -1 15 -6 24 -10 22 -4 -3 -8 1 -8 8 0 19 -44 108 -53 108 -5 0 -6 -8
-3 -17z"/>
<path d="M7140 3625 c0 -8 4 -15 10 -15 5 0 7 7 4 15 -4 8 -8 15 -10 15 -2 0
-4 -7 -4 -15z"/>
<path d="M7440 3361 c0 -5 5 -13 10 -16 6 -3 10 -2 10 4 0 5 -4 13 -10 16 -5
3 -10 2 -10 -4z"/>
<path d="M4210 3989 c0 -6 9 -9 19 -6 13 3 21 -1 23 -12 3 -13 6 -12 16 7 12
21 11 22 -23 22 -19 0 -35 -5 -35 -11z"/>
<path d="M4146 3965 c-3 -8 -1 -15 4 -15 6 0 10 7 10 15 0 8 -2 15 -4 15 -2 0
-6 -7 -10 -15z"/>
<path d="M4170 3946 c0 -9 5 -16 10 -16 6 0 10 4 10 9 0 6 -4 13 -10 16 -5 3
-10 -1 -10 -9z"/>
<path d="M4063 3903 c0 -7 4 -13 8 -13 4 0 9 6 12 13 3 8 0 14 -7 14 -7 0 -13
-6 -13 -14z"/>
<path d="M8195 3962 c-11 -7 -38 -62 -31 -62 2 0 13 16 25 35 22 37 22 39 6
27z"/>
<path d="M764 3645 c-9 -19 -8 -22 8 -17 10 2 18 10 18 18 0 23 -15 23 -26 -1z"/>
<path d="M690 3620 c0 -5 5 -10 10 -10 6 0 10 5 10 10 0 6 -4 10 -10 10 -5 0
-10 -4 -10 -10z"/>
<path d="M5225 3860 c-3 -5 -1 -10 4 -10 6 0 11 5 11 10 0 6 -2 10 -4 10 -3 0
-8 -4 -11 -10z"/>
<path d="M5971 2784 c0 -11 3 -14 6 -6 3 7 2 16 -1 19 -3 4 -6 -2 -5 -13z"/>
<path d="M6736 3182 c-3 -6 -1 -14 5 -17 14 -9 20 -2 10 14 -6 8 -11 9 -15 3z"/>
<path d="M6232 2949 c1 -12 9 -24 16 -25 7 -1 8 0 3 2 -6 3 -8 11 -5 19 3 7 0
16 -6 20 -8 5 -11 0 -8 -16z"/>
<path d="M5486 2062 c-3 -5 1 -9 9 -9 8 0 15 4 15 9 0 4 -4 8 -9 8 -6 0 -12
-4 -15 -8z"/>
<path d="M5531 1944 c0 -11 3 -14 6 -6 3 7 2 16 -1 19 -3 4 -6 -2 -5 -13z"/>
<path d="M4065 2820 c3 -5 11 -10 16 -10 6 0 7 5 4 10 -3 6 -11 10 -16 10 -6
0 -7 -4 -4 -10z"/>
<path d="M4821 2414 c0 -11 3 -14 6 -6 3 7 2 16 -1 19 -3 4 -6 -2 -5 -13z"/>
<path d="M4646 2611 c-3 -5 1 -11 9 -14 9 -4 12 -1 8 9 -6 16 -10 17 -17 5z"/>
<path d="M4620 2590 c0 -5 5 -10 11 -10 5 0 7 5 4 10 -3 6 -8 10 -11 10 -2 0
-4 -4 -4 -10z"/>
<path d="M4646 2255 c4 -8 11 -15 16 -15 6 0 5 6 -2 15 -7 8 -14 15 -16 15 -2
0 -1 -7 2 -15z"/>
<path d="M3940 1866 c0 -8 5 -18 10 -21 6 -3 10 1 10 9 0 8 -4 18 -10 21 -5 3
-10 -1 -10 -9z"/>
<path d="M3956 1822 c-2 -4 4 -8 14 -8 10 0 16 4 14 8 -3 4 -9 8 -14 8 -5 0
-11 -4 -14 -8z"/>
<path d="M4001 1729 c-1 -15 5 -32 13 -38 17 -14 16 -2 -2 39 l-11 25 0 -26z"/>
<path d="M1832 2145 c-29 -16 -49 -35 -36 -35 5 0 23 11 39 25 33 27 32 30 -3
10z"/>
<path d="M5865 2060 c3 -5 -1 -10 -9 -10 -9 0 -13 -6 -10 -15 5 -11 10 -12 24
-3 18 11 17 38 -2 38 -5 0 -6 -4 -3 -10z"/>
<path d="M6000 1921 c0 -5 4 -12 8 -15 5 -3 7 -18 6 -34 -1 -18 3 -29 12 -29
7 0 10 5 6 11 -3 6 -5 19 -4 29 2 9 -4 24 -12 33 -9 8 -16 11 -16 5z"/>
<path d="M6000 1815 c7 -8 17 -15 22 -15 6 0 5 7 -2 15 -7 8 -17 15 -22 15 -6
0 -5 -7 2 -15z"/>
<path d="M1395 2100 c-3 -5 -1 -10 4 -10 6 0 11 5 11 10 0 6 -2 10 -4 10 -3 0
-8 -4 -11 -10z"/>
<path d="M2180 2089 c0 -5 5 -7 10 -4 6 3 10 8 10 11 0 2 -4 4 -10 4 -5 0 -10
-5 -10 -11z"/>
<path d="M3220 9320 c8 -5 30 -10 49 -10 45 0 37 6 -19 14 -31 4 -40 3 -30 -4z"/>
<path d="M5576 7334 c-3 -9 -6 -28 -6 -44 0 -16 -5 -41 -11 -57 -21 -49 -30
-211 -15 -245 6 -13 4 -18 -8 -18 -12 0 -15 -10 -14 -42 1 -24 -2 -51 -6 -60
-6 -13 -4 -18 7 -18 8 0 17 -9 20 -20 6 -22 -8 -28 -17 -7 -3 6 -3 -1 0 -18 3
-16 12 -37 20 -47 10 -11 12 -18 5 -23 -17 -10 -13 -25 4 -19 18 7 20 54 3 54
-7 0 -5 5 5 11 22 13 23 49 0 49 -16 0 -16 1 0 13 15 11 17 41 19 260 2 136 2
247 2 247 -1 0 -5 -7 -8 -16z"/>
<path d="M6080 7000 c0 -5 5 -10 11 -10 5 0 7 5 4 10 -3 6 -8 10 -11 10 -2 0
-4 -4 -4 -10z"/>
<path d="M5271 6814 c0 -11 3 -14 6 -6 3 7 2 16 -1 19 -3 4 -6 -2 -5 -13z"/>
<path d="M5771 6649 c1 -30 5 -67 9 -84 4 -17 5 5 2 50 -6 93 -13 114 -11 34z"/>
<path d="M9285 6589 c-4 -6 -5 -12 -2 -15 2 -3 7 2 10 11 7 17 1 20 -8 4z"/>
<path d="M5941 6430 c-1 -30 47 -117 80 -145 l23 -20 -17 25 c-52 76 -67 101
-76 131 -8 29 -9 31 -10 9z"/>
<path d="M9370 6148 c-7 -35 -19 -80 -26 -100 -7 -21 -9 -38 -5 -38 9 0 56
188 49 195 -3 3 -11 -23 -18 -57z"/>
<path d="M10079 5918 c-18 -3 -109 -9 -203 -13 -94 -3 -225 -13 -290 -22 -113
-15 -121 -18 -152 -49 -18 -19 -27 -34 -21 -34 7 0 6 -5 -3 -10 -13 -9 -13
-12 3 -21 17 -10 17 -12 3 -28 -16 -18 -15 -49 3 -94 14 -35 14 -37 0 -37 -5
0 -7 5 -4 10 3 6 1 10 -5 10 -6 0 -10 -6 -9 -12 4 -36 -2 -59 -13 -52 -7 4 -4
-3 7 -15 19 -22 19 -23 1 -36 -20 -15 -28 -56 -13 -66 6 -4 5 -14 -1 -25 -6
-11 -7 -27 -1 -43 7 -17 6 -27 -3 -33 -9 -7 -4 -8 15 -5 15 2 26 2 23 -1 -3
-2 2 -11 10 -20 11 -10 12 -18 5 -25 -18 -18 -13 -46 7 -42 9 2 19 4 21 4 3 1
-4 8 -15 16 -14 11 -15 14 -3 9 10 -3 20 -1 24 5 3 6 1 11 -4 11 -13 0 -14 35
-2 59 5 9 12 32 14 51 3 19 6 37 6 39 1 2 7 -2 15 -8 17 -14 24 -60 32 -216 3
-66 9 -122 12 -125 4 -3 7 -25 7 -50 0 -25 3 -50 7 -56 4 -6 6 -20 3 -32 -2
-12 0 -24 6 -27 5 -4 7 -16 3 -29 -3 -12 0 -34 5 -49 6 -16 7 -27 1 -27 -6 0
-5 -11 1 -27 5 -15 8 -37 5 -49 -3 -11 -2 -24 2 -28 4 -4 12 -31 17 -59 6 -32
15 -51 23 -50 6 2 11 -3 9 -10 -1 -6 4 -11 12 -9 12 3 12 0 1 -12 -7 -9 -18
-16 -25 -16 -8 0 -11 -8 -8 -20 7 -25 12 -25 29 -2 12 16 12 16 11 -2 -1 -10
4 -21 11 -23 8 -3 12 9 13 39 1 24 3 59 4 78 1 19 5 156 9 304 5 163 12 278
18 290 6 12 10 23 9 24 -2 2 0 6 2 9 6 5 13 -16 21 -62 3 -16 8 -131 11 -255
3 -124 8 -292 12 -375 3 -82 6 -166 7 -187 0 -20 5 -34 10 -30 6 3 6 -3 1 -14
-14 -35 -13 -186 2 -222 8 -18 11 -43 7 -54 -4 -12 -2 -18 4 -14 10 6 7 -48
-3 -65 -4 -5 -1 -9 4 -9 6 0 11 -9 11 -20 0 -11 5 -20 11 -20 8 0 7 -6 -2 -17
-10 -11 -10 -14 -1 -9 7 4 12 1 12 -9 0 -12 4 -13 18 -6 12 6 23 5 37 -6 19
-13 19 -15 3 -27 -18 -13 -21 -56 -5 -67 5 -3 2 -9 -7 -12 -9 -4 -16 -2 -16 4
0 6 -7 17 -15 25 -9 9 -15 11 -15 4 0 -6 -6 -8 -12 -4 -10 6 -10 4 0 -7 6 -7
12 -21 12 -32 0 -13 5 -17 18 -13 13 4 22 -1 32 -18 14 -27 7 -61 -11 -50 -8
4 -9 3 -5 -5 4 -6 12 -9 17 -6 5 4 9 1 9 -5 0 -6 5 -8 10 -5 6 3 10 1 10 -5 0
-6 5 -8 10 -5 6 3 10 2 10 -4 0 -6 14 -7 34 -4 28 4 36 1 45 -16 13 -23 7 -39
-21 -59 -10 -7 -18 -22 -18 -33 0 -13 -4 -18 -12 -13 -8 4 -10 3 -5 -2 5 -5
12 -9 15 -9 19 -2 52 -17 52 -25 0 -5 9 -7 21 -5 16 3 18 1 10 -9 -6 -7 -7
-17 -3 -21 4 -5 1 -5 -5 -1 -12 6 -18 -5 -14 -26 0 -5 -4 -8 -10 -8 -5 0 -8
-4 -5 -9 4 -5 1 -11 -5 -13 -6 -2 1 -19 15 -41 14 -21 26 -40 26 -42 0 -6 -29
1 -37 10 -4 4 -2 5 5 1 6 -4 12 -2 12 4 0 6 -7 13 -15 16 -8 4 -12 11 -8 17 3
5 1 7 -4 4 -6 -4 -13 -18 -15 -32 -3 -13 -2 -22 3 -20 4 3 10 1 14 -5 3 -5 1
-10 -5 -10 -6 0 -8 -4 -5 -10 3 -5 1 -10 -4 -10 -6 0 -11 5 -11 11 0 5 -5 7
-10 4 -15 -9 -5 -21 56 -61 61 -40 125 -109 184 -198 l40 -58 0 422 c0 369 -2
424 -16 446 -15 22 -15 26 0 49 13 20 16 55 16 200 l0 176 -178 -7 c-189 -7
-215 -3 -227 37 -4 13 -1 27 11 40 16 18 28 18 205 12 189 -6 189 -6 189 15 0
22 -2 22 -195 22 -172 0 -196 2 -202 16 -3 9 -2 24 4 33 9 14 36 16 199 16
l189 0 3 249 2 249 -175 -6 c-97 -4 -186 -3 -199 2 -29 12 -39 36 -26 62 10
18 23 19 205 19 l195 0 0 26 0 27 -184 -5 c-101 -3 -189 -2 -196 2 -7 4 -10
15 -7 25 6 14 27 16 194 13 l188 -3 0 400 0 400 -62 0 c-34 0 -76 -3 -94 -7z
m22 -283 c9 -39 11 -289 3 -309 -7 -18 -59 -22 -70 -5 -8 14 -7 302 1 330 11
33 58 22 66 -16z m-219 -140 c5 -22 7 -71 6 -109 -3 -79 -18 -98 -62 -78 -25
11 -26 14 -26 110 0 106 8 125 50 120 19 -2 26 -11 32 -43z m-472 -19 c0 -3
-4 -8 -10 -11 -5 -3 -10 -1 -10 4 0 6 5 11 10 11 6 0 10 -2 10 -4z m75 -6 c3
-5 1 -10 -4 -10 -6 0 -11 5 -11 10 0 6 2 10 4 10 3 0 8 -4 11 -10z m-48 -76
c-2 -3 -14 -6 -26 -9 -25 -5 -29 12 -3 18 18 4 36 -2 29 -9z m530 2 c-3 -7 1
-23 9 -35 18 -26 11 -41 -21 -41 -28 0 -39 24 -20 44 8 8 15 22 15 30 0 9 5
16 11 16 6 0 9 -6 6 -14z m-250 -43 c-3 -10 -5 -4 -5 12 0 17 2 24 5 18 2 -7
2 -21 0 -30z m206 -536 c10 -28 -14 -42 -65 -38 -21 1 -25 37 -5 44 25 11 65
7 70 -6z m292 -7 c10 -30 -2 -40 -49 -40 -47 0 -70 17 -60 44 4 12 19 16 54
16 40 0 50 -4 55 -20z m-211 -202 c1 -33 -3 -43 -16 -46 -15 -3 -18 4 -18 46
0 27 3 52 7 56 13 13 26 -14 27 -56z m-84 37 c0 -8 5 -15 10 -15 6 0 10 -12
10 -26 0 -53 -38 -84 -58 -48 -8 14 -10 14 -21 0 -29 -35 -80 -1 -66 44 7 23
43 36 58 21 17 -17 24 -13 31 14 7 27 36 35 36 10z m290 -51 c0 -17 -6 -24
-20 -24 -14 0 -20 7 -20 23 0 13 3 26 6 30 12 12 34 -6 34 -29z m-112 -3 c5
-31 -11 -45 -42 -37 -19 5 -26 13 -26 30 0 30 9 38 40 34 18 -2 26 -10 28 -27z
m-194 -467 c25 -25 20 -63 -10 -74 -30 -12 -56 -10 -66 5 -21 29 7 85 43 85
10 0 25 -7 33 -16z m157 -4 c26 -15 24 -30 -5 -30 -27 0 -41 14 -31 30 8 13
12 12 36 0z m-51 -221 c26 -48 -62 -83 -94 -37 -14 20 -14 24 1 40 23 26 79
24 93 -3z m70 -434 c11 -13 10 -14 -4 -9 -9 3 -16 10 -16 15 0 13 6 11 20 -6z"/>
<path d="M4697 5783 c-4 -3 -7 -11 -7 -17 0 -6 5 -5 12 2 6 6 9 14 7 17 -3 3
-9 2 -12 -2z"/>
<path d="M5115 4503 c-5 -20 -2 -31 11 -40 21 -16 31 -9 15 10 -6 8 -9 21 -5
30 3 8 1 18 -4 21 -6 3 -13 -6 -17 -21z"/>
<path d="M5234 4204 c-18 -14 -18 -15 4 -4 12 6 22 13 22 15 0 8 -5 6 -26 -11z"/>
<path d="M9810 3860 c6 -11 13 -20 15 -20 3 0 5 9 5 20 0 11 -7 20 -15 20 -13
0 -14 -4 -5 -20z"/>
<path d="M9090 3802 c0 -17 38 -57 46 -49 4 4 -4 19 -19 33 -15 14 -27 21 -27
16z"/>
<path d="M9392 3143 c0 -33 23 -73 43 -73 7 0 16 -9 20 -19 3 -11 13 -25 22
-33 15 -12 15 -11 4 11 -7 12 -30 50 -51 83 -34 54 -38 57 -38 31z"/>
<path d="M2981 1964 c0 -11 3 -14 6 -6 3 7 2 16 -1 19 -3 4 -6 -2 -5 -13z"/>
</g>
</svg>
